/* XPM */
static char * C:\Users\Ronan\Desktop\PIVXimages\FLS\share\pixmaps\bitcoin128_xpm[] = {
"128 128 19 1",
" 	c None",
".	c #5EB2B3",
"+	c #5DB0B1",
"@	c #5FB3B4",
"#	c #60B6B7",
"$	c #5FB4B5",
"%	c #5DB1B2",
"&	c #5EB3B4",
"*	c #60B5B6",
"=	c #5FB5B6",
"-	c #5DAFB0",
";	c #5EB1B2",
">	c #5CAFB0",
",	c #5EB3B3",
"'	c #5DB1B1",
")	c #5DB2B3",
"!	c #5CB0B1",
"~	c #5EB2B2",
"{	c #60B6B6",
"                                                                                                                                ",
"                                                                                                                                ",
"                                                                                                                                ",
"                                                                                                                                ",
"                                                                                                                                ",
"                                                                                                                                ",
"                                                                                                                                ",
"                                                                                                                                ",
"                                                                                                                                ",
"                                                                                                                                ",
"                                                                                                                                ",
"                                                                                                                                ",
"                                                                                                                                ",
"                                           .+.                                                                                  ",
"                                         @#####$                                                                                ",
"                                        $########$                                                                              ",
"                                       %###########&                                                                            ",
"                                       $#############+                                                                          ",
"                                       ###############$                                                                         ",
"                                       #################&                                                                       ",
"                                       ###################.                                                                     ",
"                                       ####################*+                                                                   ",
"                                       ######################$                                                                  ",
"                                       ########################@                                                                ",
"                                       ##########################%                                                              ",
"                                       ###########################=-                                                            ",
"                                       #############################$                                                           ",
"                                       ###############################&                                                         ",
"                                       #################################%                                                       ",
"                                       ##################################$                                                      ",
"                                       ####################################&                                                    ",
"                                       ######################################.                                                  ",
"                                       #######################################*+                                                ",
"                                       #########################################$                                               ",
"                                       ###########################################.                                             ",
"                                       #############################################%                                           ",
"                                       ##############################################=+                                         ",
"                                                    .##################################$                                        ",
"                                                     .###################################.                                      ",
"                                                      ####################################*%                                    ",
"                                                      *#####################################$                                   ",
"                                                      *#######################################@                                 ",
"                                                      ##########################################.                               ",
"                                                     =###########################################*+                             ",
"                                                   .=##############################################$                            ",
"         .###########%          +*###################################################################&                          ",
"        %#############+        +#######################################################################;                        ",
"        ##############=        $########################################################################=>                      ",
"        ###############        ###########################################################################$                     ",
"        ##############*        $############################################################################,                   ",
"        .#############%        '##############################################################################'                 ",
"         &###########)          %##############################################################################$                ",
"                                           +=##############*%     !@#############################################&              ",
"                                             $############=         .##############################################.            ",
"                                              *###########           $##############################################*+          ",
"                                              .##########=           %################################################$         ",
"                                              %##########*           %##################################################&       ",
"                                              $##########*           .####################################################;     ",
"                                              ############+          ######################################################*    ",
"                                             ##############+        $########################################################;  ",
"                  .$$$$$$$$$$=************=$################==###*$###########################################################+ ",
"                +############################################################################################################## ",
"                ###############################################################################################################.",
"               .###############################################################################################################$",
"               .###############################################################################################################=",
"                ###############################################################################################################.",
"                +############################################################################################################## ",
"                  .$$$$$$$$$$$$$$$$$$$$$$$$=##################################$$$$$$$$$$$$####################################. ",
"                                            >###############################$              $#################################%  ",
"                                              #############################$                =##############################*>   ",
"                                              $############################!                ;#############################.     ",
"                                              +############################                  ###########################&       ",
"                                              .############################                  #########################=         ",
"                                              *############################.                .########################'          ",
"                                             $##############################               -#######################.            ",
"                                           -$################################.            &######################$              ",
" +#############################################################################################################=                ",
" #############################################################################################################%                 ",
"%###########################################################################################################.                   ",
"=#########################################################################################################$                     ",
".#######################################################################################################*-                      ",
" ######################################################################################################.                        ",
"  *##################################################################################################@                          ",
"                                                                   $###############################$                            ",
"                                                                    .############################*+                             ",
"                                                                     $##########################.                               ",
"                                                                     ~########################$                                 ",
"                                                                     >######################=                                   ",
"                                                                     $####################{%                                    ",
"                                                                     ####################.                                      ",
"                                                                    =##################$                                        ",
"                                       %%%%%%%%%%%%%%%%%%%%%%%%%%%###################=+                                         ",
"                                       #############################################%                                           ",
"                                       ###########################################.                                             ",
"                                       #########################################$                                               ",
"                                       #######################################*%                                                ",
"                                       ######################################~                                                  ",
"                                       ####################################&                                                    ",
"                                       ##################################$                                                      ",
"                                       ################################*+                                                       ",
"                                       ###############################.                                                         ",
"                                       #############################$                                                           ",
"                                       ###########################=                                                             ",
"                                       #########################*%                                                              ",
"                                       ########################.                                                                ",
"                                       ######################$                                                                  ",
"                                       ####################*>                                                                   ",
"                                       ###################.                                                                     ",
"                                       #################@                                                                       ",
"                                       ###############$                                                                         ",
"                                       =############*+                                                                          ",
"                                       .###########.                                                                            ",
"                                        $########&                                                                              ",
"                                         $#####&                                                                                ",
"                                           @..                                                                                  ",
"                                                                                                                                ",
"                                                                                                                                ",
"                                                                                                                                ",
"                                                                                                                                ",
"                                                                                                                                ",
"                                                                                                                                ",
"                                                                                                                                ",
"                                                                                                                                ",
"                                                                                                                                ",
"                                                                                                                                ",
"                                                                                                                                ",
"                                                                                                                                ",
"                                                                                                                                "};
