/* XPM */
static char * C:\Users\Ronan\Desktop\PIVXimages\FLS\share\pixmaps\bitcoin64_xpm[] = {
"64 64 10 1",
" 	c None",
".	c #5FB4B5",
"+	c #60B5B6",
"@	c #60B6B7",
"#	c #5FB5B6",
"$	c #60B4B5",
"%	c #60B6B6",
"&	c #5FB3B4",
"*	c #5EB3B4",
"=	c #5FB5B5",
"                                                                ",
"                                                                ",
"                                                                ",
"                                                                ",
"                                                                ",
"                                                                ",
"                                                                ",
"                    .+++.                                       ",
"                    @@@@@+                                      ",
"                   .@@@@@@@#                                    ",
"                   @@@@@@@@@@.                                  ",
"                   @@@@@@@@@@@+.                                ",
"                   @@@@@@@@@@@@@#                               ",
"                   @@@@@@@@@@@@@@@.                             ",
"                   @@@@@@@@@@@@@@@@@.                           ",
"                   @@@@@@@@@@@@@@@@@@+.                         ",
"                   +@@@@@@@@@@@@@@@@@@@+                        ",
"                   +@@@@@@@@@@@@@@@@@@@@@#                      ",
"                    @@@@@++@@@@@@@@@@@@@@@@.                    ",
"                           @@@@@@@@@@@@@@@@@+                   ",
"                           +@@@@@@@@@@@@@@@@@@#                 ",
"                           @@@@@@@@@@@@@@@@@@@@@$               ",
"     ...##       .#####...+@@@@@@@@@@@@@@@@@@@@@@+.             ",
"    #@@@@@@     @@@@@@@@@@@@@@@@@@@@@@@@@@@@@@@@@@@+            ",
"    @@@@@@@    .@@@@@@@@@@@@@@@@@@@@@@@@@@@@@@@@@@@@@#          ",
"    .@@@@@#     +@@@@@@@@@@@@@@@@@@@@@@@@@@@@@@@@@@@@@%.        ",
"                      #@@@@@@+    +@@@@@@@@@@@@@@@@@@@@@+       ",
"                       +@@@@@      @@@@@@@@@@@@@@@@@@@@@@@+     ",
"                       +@@@@@      @@@@@@@@@@@@@@@@@@@@@@@@@#   ",
"                      .@@@@@@.    #@@@@@@@@@@@@@@@@@@@@@@@@@@+. ",
"         #####++++++++@@@@@@@@@@@+@@@@@@@@@@@@@@@@@@@@@@@@@@@@@&",
"        @@@@@@@@@@@@@@@@@@@@@@@@@@@@@@@@@@@@@@@@@@@@@@@@@@@@@@@#",
"        @@@@@@@@@@@@@@@@@@@@@@@@@@@@@@@@@@@@@@@@@@@@@@@@@@@@@@@#",
"         #############@@@@@@@@@@@@@@@@@+####+@@@@@@@@@@@@@@@@@@*",
"                      &@@@@@@@@@@@@@@@        @@@@@@@@@@@@@@@+. ",
"                       #@@@@@@@@@@@@@.        .@@@@@@@@@@@@@#   ",
"                       +@@@@@@@@@@@@@.        #@@@@@@@@@@@+     ",
"                      .@@@@@@@@@@@@@@@.      .@@@@@@@@@@+.      ",
"*@@@@@@@@@@@@@@@@@@@@@@@@@@@@@@@@@@@@@@@@@@@@@@@@@@@@@+.        ",
".@@@@@@@@@@@@@@@@@@@@@@@@@@@@@@@@@@@@@@@@@@@@@@@@@@@@+          ",
".@@@@@@@@@@@@@@@@@@@@@@@@@@@@@@@@@@@@@@@@@@@@@@@@@@+            ",
" .##.............................#@@@@@@@@@@@@@@@+.             ",
"                                  .@@@@@@@@@@@@@$               ",
"                                   @@@@@@@@@@@#                 ",
"                                  .@@@@@@@@@+                   ",
"                                *=@@@@@@@@@.                    ",
"                   *@@@@@@@@@@@@@@@@@@@@@#                      ",
"                   .@@@@@@@@@@@@@@@@@@@+                        ",
"                   .@@@@@@@@@@@@@@@@@+.                         ",
"                   .@@@@@@@@@@@@@@@+.                           ",
"                   .@@@@@@@@@@@@@@+                             ",
"                   .@@@@@@@@@@@@+                               ",
"                   .@@@@@@@@@@+.                                ",
"                   .@@@@@@@@@.                                  ",
"                   =@@@@@@@+                                    ",
"                    @@@@@+                                      ",
"                    .@@+.                                       ",
"                                                                ",
"                                                                ",
"                                                                ",
"                                                                ",
"                                                                ",
"                                                                ",
"                                                                "};
