/* XPM */
static char * C:\Users\Ronan\Desktop\PIVXimages\FLS\share\pixmaps\bitcoin32_xpm[] = {
"32 32 4 1",
" 	c None",
".	c #60B5B6",
"+	c #60B6B7",
"@	c #5FB5B6",
"                                ",
"                                ",
"                                ",
"           .                    ",
"          +++.                  ",
"          +++++                 ",
"          ++++++@               ",
"          +++++++++             ",
"          ++++++++++.           ",
"             +++++++++          ",
"             .++++++++++        ",
"  @++   +++++++++++++++++.      ",
"  +++@  +++++++++++++++++++     ",
"           .+++  +++++++++++.   ",
"           .+++  +++++++++++++. ",
"    +++++++++++++++++++++++++++@",
"    +++++++++++++++++++++++++++@",
"           @+++++++    +++++++. ",
"           .+++++++    +++++.   ",
"@++++++++++++++++++++++++++     ",
"@++++++++++++++++++++++++.      ",
"                 +++++++        ",
"                 +++++          ",
"          ++++++++++.           ",
"          ++++++++.             ",
"          ++++++.               ",
"          +++++                 ",
"          +++.                  ",
"           .                    ",
"                                ",
"                                ",
"                                "};
