<?xml version="1.0" standalone="no"?>
<!DOCTYPE svg PUBLIC "-//W3C//DTD SVG 20010904//EN"
 "http://www.w3.org/TR/2001/REC-SVG-20010904/DTD/svg10.dtd">
<svg version="1.0" xmlns="http://www.w3.org/2000/svg"
 width="768.000000pt" height="533.000000pt" viewBox="0 0 768.000000 533.000000"
 preserveAspectRatio="xMidYMid meet">

<g transform="translate(0.000000,533.000000) scale(0.100000,-0.100000)"
fill="#000000" stroke="none">
<path d="M0 5141 c0 -172 2 -190 18 -194 16 -4 16 -5 0 -6 -10 0 -18 -8 -18
-17 0 -11 8 -14 28 -12 19 2 26 8 24 21 -3 15 3 17 42 13 25 -3 110 -7 188
-11 79 -3 154 -8 167 -11 39 -8 9 -27 -58 -35 -57 -6 -141 -36 -141 -50 0 -3
-11 -6 -25 -6 -20 0 -23 2 -14 13 6 8 15 12 19 9 4 -3 10 1 13 9 4 10 -19 16
-106 23 -62 6 -118 8 -125 6 -9 -4 -12 -70 -12 -283 l0 -277 78 4 c69 4 75 3
59 -10 -10 -8 -45 -23 -77 -33 l-60 -19 0 -493 0 -493 23 7 c12 3 28 11 35 17
11 9 11 12 -5 18 -14 6 -15 8 -2 8 9 1 26 10 39 21 13 12 30 18 39 15 8 -3 17
-2 20 3 3 4 31 20 61 34 52 25 68 30 168 59 23 7 42 15 42 19 0 10 68 40 90
40 11 0 25 9 32 20 7 11 22 20 34 20 12 0 27 7 34 15 7 8 21 15 31 15 11 0 19
7 19 15 0 9 21 25 48 36 26 12 59 28 74 35 14 8 33 14 42 14 9 0 16 6 16 14 0
15 21 26 51 26 10 0 19 7 19 15 0 8 6 15 13 15 7 0 24 11 39 25 17 15 39 25
58 25 20 0 30 5 30 15 0 13 7 15 34 10 19 -4 58 -2 88 4 29 6 74 13 100 16 38
5 48 10 48 24 0 14 10 20 41 25 22 4 51 13 63 22 13 8 47 17 75 21 42 5 51 9
51 25 0 11 4 16 10 13 5 -3 22 5 37 19 15 15 36 26 45 26 10 0 24 11 33 23 20
30 84 52 92 31 3 -8 19 -14 38 -14 30 0 33 3 40 36 7 42 8 42 -33 50 -25 5
-32 3 -32 -10 0 -15 -12 -20 -77 -31 -18 -3 -47 -8 -64 -11 -41 -7 -35 17 7
30 16 5 43 15 61 22 17 8 34 14 37 14 3 0 21 11 41 24 20 14 61 32 91 41 52
15 65 27 44 40 -24 15 -7 25 31 19 33 -6 41 -4 37 7 -7 20 -122 34 -168 20
-51 -15 -63 -14 -56 4 5 14 2 14 -23 -1 -15 -9 -28 -24 -27 -32 0 -9 -7 -18
-18 -20 -22 -5 -41 19 -23 30 21 13 -25 22 -55 10 -17 -6 -39 -7 -51 -3 -35
13 -142 -3 -132 -19 4 -6 -7 -10 -23 -10 -16 0 -35 -7 -42 -15 -7 -8 -19 -15
-26 -15 -8 0 -14 -4 -14 -9 0 -10 -129 -35 -138 -26 -3 3 5 5 17 5 21 0 23 3
17 34 -5 24 -3 35 6 38 17 6 -9 58 -29 58 -7 0 -13 7 -13 15 0 8 9 15 20 15
11 0 20 4 20 10 0 14 -35 30 -64 30 -14 0 -27 4 -30 9 -7 11 81 18 309 26 184
6 546 29 715 46 66 6 109 15 115 24 6 7 29 16 50 19 28 4 35 3 25 -4 -10 -6
-12 -12 -4 -20 7 -7 23 -6 55 5 24 9 61 18 81 20 21 2 42 6 48 10 6 4 41 7 78
7 37 0 83 4 102 8 19 5 60 11 90 14 30 4 71 11 90 16 19 5 63 11 98 13 34 3
68 10 76 16 8 7 29 13 47 16 19 2 59 8 89 13 143 25 175 35 205 63 31 30 54
37 56 19 1 -5 3 -14 4 -20 1 -5 3 -13 4 -16 0 -4 7 -1 14 5 8 6 17 8 20 4 4
-3 10 2 13 12 8 20 -11 35 -46 35 -15 0 -30 4 -36 10 -12 12 -60 14 -134 6
-30 -4 -59 -7 -65 -7 -5 0 -48 0 -95 1 -104 3 -145 -8 -233 -59 -66 -39 -88
-46 -170 -56 -21 -2 -42 -7 -46 -10 -5 -3 -44 -8 -88 -11 -43 -3 -93 -12 -112
-20 -18 -8 -48 -14 -65 -14 -31 0 -31 0 14 23 25 12 51 27 57 34 7 6 30 17 50
23 21 7 42 16 47 21 6 5 15 9 22 9 7 0 50 18 97 40 46 22 91 40 99 40 9 0 21
6 27 14 6 7 32 19 56 26 25 7 45 17 45 22 0 18 -33 20 -62 4 -36 -22 -58 -15
-58 18 0 42 -37 46 -230 27 -69 -7 -147 -15 -175 -16 -27 -2 -86 -7 -130 -11
-44 -4 -114 -6 -155 -6 -41 1 -122 -3 -180 -9 -58 -7 -152 -13 -210 -14 -58
-2 -119 -3 -136 -4 -17 0 -37 -7 -44 -16 -14 -17 -43 -19 -71 -5 -14 8 -26 7
-47 -4 -27 -14 -68 -13 -107 4 -39 17 -50 17 -79 2 -28 -13 -31 -13 -47 7 -22
27 -69 29 -69 2 0 -20 18 -31 52 -31 14 0 18 -5 14 -16 -3 -9 -6 -20 -6 -25 0
-5 -21 -9 -48 -9 -26 0 -57 -6 -68 -14 -23 -17 -203 -39 -239 -30 l-25 6 25
20 c26 20 97 36 207 47 71 6 92 16 68 31 -19 13 -42 12 -75 0 -23 -9 -28 -7
-32 9 -7 29 -74 41 -220 41 -83 0 -150 5 -187 15 -32 9 -70 14 -84 13 -14 -2
-27 3 -30 10 -3 12 21 13 140 8 424 -17 1120 -2 1783 40 263 16 413 14 473 -7
35 -12 107 -1 168 27 24 10 88 14 255 15 123 1 298 7 388 13 128 9 167 9 180
-1 22 -17 41 -16 64 5 15 12 21 14 24 5 6 -18 38 -16 53 2 7 8 20 15 29 15 9
0 31 9 50 21 30 18 38 19 58 8 20 -11 29 -10 58 5 29 16 39 17 64 6 16 -6 34
-9 40 -6 6 4 20 2 31 -4 16 -8 25 -8 35 0 8 7 27 9 48 5 20 -4 44 -2 55 4 21
11 107 18 327 26 257 9 639 49 720 75 33 11 85 27 115 36 52 15 145 62 137 70
-2 2 -28 -1 -58 -7 -51 -9 -96 -13 -129 -10 -12 1 -11 5 4 16 35 27 4 54 -54
46 -116 -15 -155 -18 -173 -13 -20 5 -20 6 -1 13 10 4 -705 7 -1591 6 -1761
-3 -1679 0 -1925 -62 -87 -22 -265 -50 -510 -81 -77 -9 -174 -35 -191 -50 -10
-9 -45 -16 -95 -18 -43 -2 -97 -8 -119 -14 -113 -30 -158 -33 -218 -14 -32 10
-59 23 -60 28 -2 9 123 27 132 19 2 -3 9 3 16 12 18 24 284 58 340 43 32 -9
47 -8 77 4 21 9 52 16 70 16 40 0 174 27 199 40 10 6 32 10 49 10 17 0 42 7
55 16 19 12 37 14 75 9 39 -5 56 -3 76 10 15 9 47 21 73 25 25 4 -376 8 -891
9 l-938 1 0 -189z m5180 149 c-20 -13 -40 -13 -40 0 0 6 12 10 28 10 21 0 24
-2 12 -10z m325 -51 c-8 -12 -42 -12 -50 0 -3 5 5 11 17 13 28 5 40 0 33 -13z
m-2035 -29 c34 -21 0 -27 -132 -21 -59 2 -44 20 20 24 31 2 66 4 77 5 11 1 27
-2 35 -8z m-696 -368 c8 -13 -59 -31 -75 -21 -12 8 -11 11 1 19 18 12 67 13
74 2z m-1505 -61 c9 -6 4 -10 -17 -13 -22 -3 -29 -1 -25 9 6 15 22 17 42 4z
m-469 -66 c-13 -16 -50 -21 -50 -7 0 15 13 22 38 22 21 0 22 -2 12 -15z m708
-437 c-6 -17 -36 -34 -45 -24 -4 4 1 14 11 22 24 17 39 18 34 2z m327 -28 c-5
-8 -11 -8 -17 -2 -6 6 -7 16 -3 22 5 8 11 8 17 2 6 -6 7 -16 3 -22z m-165 -9
c0 -17 -18 -31 -41 -31 -14 0 -11 38 4 43 25 11 37 7 37 -12z m-150 -181 c0
-5 -9 -10 -20 -10 -11 0 -20 5 -20 10 0 6 9 10 20 10 11 0 20 -4 20 -10z m-76
-25 c-4 -8 -13 -15 -22 -15 -9 0 -26 -10 -39 -22 -22 -21 -23 -21 -23 -2 0 11
12 27 28 36 34 22 63 23 56 3z m-131 -62 c-13 -2 -23 -11 -23 -19 0 -8 -9 -14
-20 -14 -18 0 -19 2 -8 20 9 13 23 20 43 19 23 -1 25 -3 8 -6z m-139 -38 c4
-10 -1 -15 -14 -15 -20 0 -26 11 -13 23 10 11 20 8 27 -8z"/>
<path d="M6090 5315 c-7 -9 -22 -12 -40 -9 -15 4 -31 1 -34 -5 -4 -6 0 -11 8
-11 25 0 19 -16 -15 -45 -24 -20 -38 -25 -59 -20 -40 9 -76 -3 -88 -29 -10
-22 -15 -23 -86 -18 -73 4 -76 4 -85 -20 -8 -21 -18 -27 -63 -32 -29 -4 -85
-22 -123 -41 -45 -23 -84 -35 -111 -35 -29 0 -46 -6 -60 -21 -10 -12 -17 -24
-14 -28 6 -7 -68 -19 -127 -20 -24 -1 -48 -8 -58 -17 -41 -41 -84 -62 -128
-62 -46 0 -100 -22 -114 -46 -4 -7 -21 -17 -37 -23 -17 -5 -32 -15 -34 -22 -3
-10 9 -11 52 -6 55 7 56 7 56 -18 0 -20 -6 -26 -35 -31 -20 -4 -39 -5 -44 -2
-15 10 -125 -13 -140 -29 -14 -14 -14 -17 -1 -25 8 -6 26 -8 40 -6 14 3 47 8
74 11 46 6 49 5 36 -10 -12 -14 -12 -18 1 -25 11 -8 12 -11 1 -22 -11 -11 -15
-10 -23 4 -7 14 -19 16 -67 11 -31 -3 -73 -13 -92 -23 -19 -10 -48 -23 -63
-29 -65 -26 -3 -46 86 -27 27 6 37 5 37 -5 0 -7 7 -21 17 -31 9 -10 11 -18 5
-18 -6 0 -18 -3 -27 -6 -12 -5 -16 -2 -13 12 3 16 -4 19 -47 22 -52 4 -148
-21 -175 -45 -12 -11 -10 -13 15 -13 28 0 28 -1 9 -15 -18 -14 -18 -16 -1 -29
16 -12 15 -14 -13 -26 -16 -7 -36 -10 -44 -7 -15 6 -116 -22 -151 -41 -11 -6
-53 -20 -92 -32 -40 -11 -73 -25 -73 -31 0 -12 26 -10 140 13 41 9 113 21 160
28 94 14 130 30 130 60 0 17 7 20 50 20 28 0 50 -4 50 -10 0 -5 7 -10 15 -10
16 0 19 -17 9 -44 -5 -13 -24 -16 -100 -16 -81 0 -95 -2 -107 -20 -8 -11 -29
-25 -48 -32 l-34 -12 30 -12 c28 -11 27 -12 -34 -19 -66 -8 -93 -1 -42 10 41
9 40 25 -1 25 -50 0 -80 -11 -74 -26 6 -15 -2 -18 -103 -39 -46 -10 -115 -36
-187 -73 -110 -55 -133 -72 -96 -72 33 0 247 38 275 49 15 6 69 16 118 21 95
11 117 19 196 72 38 26 60 33 110 36 35 3 63 0 62 -4 0 -5 -42 -29 -92 -54
-79 -38 -92 -49 -95 -72 -5 -40 -38 -55 -137 -62 -68 -4 -95 -10 -117 -26 -15
-11 -30 -20 -34 -20 -5 0 -45 -17 -154 -68 -22 -10 -18 -12 35 -10 82 2 176
-4 145 -9 -29 -6 -52 -22 -45 -33 3 -4 -12 -11 -33 -14 -57 -10 -135 -37 -153
-52 -8 -8 -43 -17 -78 -20 -104 -11 -78 -22 46 -19 65 1 96 1 68 -1 -118 -9
-262 -43 -275 -64 -3 -5 -37 -16 -75 -24 -39 -8 -88 -22 -109 -31 l-40 -17 25
-18 c13 -11 58 -36 99 -57 59 -30 84 -37 118 -35 62 5 51 22 -15 23 l-58 1 45
15 c39 14 56 15 135 3 124 -18 255 -13 330 12 33 11 65 24 71 29 10 8 24 -8
24 -26 0 -5 -64 -19 -77 -16 -7 1 -13 -2 -13 -6 0 -5 -14 -17 -30 -27 -22 -12
-29 -23 -25 -35 4 -15 -6 -19 -68 -29 -74 -11 -167 -44 -167 -59 0 -5 37 -27
83 -50 l82 -42 100 4 c126 4 218 -11 206 -33 -5 -8 -22 -16 -37 -17 -36 -2
-50 5 -33 16 11 7 10 9 -3 9 -10 0 -18 -4 -18 -9 0 -5 -11 -11 -25 -13 -14 -3
-25 -1 -25 3 0 5 10 9 22 9 12 0 18 3 15 7 -11 11 -179 14 -172 3 3 -5 28 -12
55 -16 27 -4 47 -10 45 -15 -3 -4 21 -10 52 -14 102 -11 124 -16 117 -27 -4
-6 -27 -8 -55 -6 -27 3 -49 1 -49 -3 0 -9 36 -13 73 -10 9 1 17 -2 17 -7 0
-13 -29 -24 -43 -16 -9 5 -9 4 -2 -4 6 -7 23 -13 38 -14 17 -2 26 -7 23 -15
-3 -8 38 -37 107 -76 265 -151 505 -292 545 -319 82 -56 93 -138 28 -196 -19
-16 -101 -68 -183 -114 -568 -325 -676 -390 -661 -399 7 -4 18 -3 25 3 17 14
17 0 1 -15 -7 -7 -33 -13 -58 -13 -47 -1 -83 -20 -460 -238 -165 -95 -168 -98
-143 -107 13 -5 10 -7 -12 -7 -16 0 -43 -5 -58 -11 -64 -25 -143 -4 -165 45
-6 12 -14 53 -17 92 -7 64 -9 69 -29 65 -20 -3 -20 -3 2 8 18 10 22 21 22 55
0 42 0 43 -25 30 -27 -14 -97 -14 -102 1 -4 10 43 10 53 0 7 -7 34 2 34 12 0
4 -18 6 -40 5 -31 -1 -40 2 -40 15 0 9 -3 12 -8 6 -12 -18 -92 -13 -92 5 -1
12 -3 11 -11 -2 -12 -22 -32 -23 -49 -4 -6 8 -17 13 -24 10 -7 -3 -25 0 -40 6
-15 5 -25 6 -21 1 6 -11 -41 -8 -52 2 -10 11 -25 8 -18 -4 4 -5 -9 -3 -29 5
-20 8 -36 11 -36 7 0 -4 -7 -8 -15 -8 -8 0 -11 5 -8 10 4 6 0 8 -10 4 -9 -3
-19 -2 -22 3 -9 15 -27 12 -19 -2 6 -10 4 -10 -7 -1 -7 7 -27 13 -44 13 -16 0
-36 4 -44 9 -20 13 -41 2 -34 -17 4 -14 3 -14 -5 -3 -12 17 -81 21 -100 7 -9
-7 -16 -5 -23 5 -7 11 -9 11 -9 1 0 -9 -7 -11 -21 -7 -29 10 -91 -3 -83 -17 5
-7 2 -8 -6 -3 -20 12 -72 16 -84 6 -6 -5 -40 -11 -76 -14 -36 -3 -92 -12 -125
-21 -33 -8 -85 -17 -115 -21 -99 -11 -254 -36 -295 -47 -22 -5 -40 -9 -40 -7
0 1 -11 -3 -24 -10 -18 -10 -22 -10 -16 -1 6 10 1 11 -21 5 -16 -4 -51 -9 -79
-11 -27 -3 -57 -8 -65 -11 -8 -3 -34 -5 -57 -5 -25 1 -49 -5 -57 -14 -8 -8
-17 -10 -20 -5 -3 5 8 14 24 21 17 7 30 16 30 21 0 13 -9 11 -27 -6 -8 -8 -20
-12 -26 -8 -14 9 -107 11 -107 3 0 -3 -10 -7 -22 -8 -21 -1 -128 -17 -173 -25
-110 -20 -114 -21 -136 -31 -14 -6 -52 -13 -84 -15 -5 -1 -2 -8 6 -17 14 -13
21 -13 55 -2 21 7 75 13 119 13 44 0 83 5 87 10 5 6 8 5 8 -2 0 -7 7 -13 16
-13 8 0 13 3 11 8 -3 4 17 7 44 8 26 0 46 -3 43 -8 -7 -11 4 -10 45 2 25 7 39
6 50 -3 9 -7 12 -8 8 -1 -9 16 30 22 71 12 18 -5 32 -15 32 -23 0 -8 7 -15 15
-15 17 0 20 17 4 22 -7 2 -4 10 7 18 11 9 15 10 10 2 -5 -8 -1 -12 11 -12 14
0 15 -2 5 -9 -35 -22 43 -27 233 -17 50 3 109 6 132 7 25 1 40 6 36 12 -4 6
-1 7 7 2 22 -13 132 -8 141 7 6 8 9 9 9 1 0 -7 11 -10 28 -7 87 13 184 19 194
12 17 -10 19 -10 -97 -21 -22 -2 -47 -7 -55 -10 -14 -5 -80 -12 -200 -22 -89
-7 -156 -15 -183 -20 -16 -3 -56 -7 -91 -9 -34 -2 -73 -9 -86 -16 -24 -13 -24
-12 -10 5 14 17 14 18 -7 6 -13 -6 -23 -8 -23 -4 0 4 -5 2 -12 -5 -7 -7 -17
-8 -28 -2 -9 5 -22 5 -31 -1 -20 -13 -31 -11 -23 4 5 9 4 9 -6 0 -7 -6 -19 -9
-26 -6 -8 3 -20 0 -27 -6 -15 -12 -57 11 -57 32 0 8 -12 11 -33 10 -61 -5
-132 -12 -155 -17 -12 -3 -22 -1 -22 3 0 4 -15 3 -34 -3 -22 -7 -30 -13 -23
-18 7 -4 8 -8 2 -8 -20 0 -37 18 -30 31 6 9 3 11 -9 6 -11 -5 -15 -3 -10 5 5
7 2 9 -8 5 -9 -3 -19 -3 -22 1 -14 14 -37 10 -32 -5 5 -13 4 -13 -7 -4 -8 6
-27 9 -43 6 -16 -3 -54 -7 -84 -10 -85 -7 -134 -15 -350 -59 -70 -14 -167 -40
-186 -48 -11 -5 -27 -8 -35 -7 -8 1 -38 -5 -68 -14 -30 -9 -64 -17 -76 -17
-18 0 -21 -7 -23 -40 -2 -22 0 -44 3 -49 2 -5 44 2 92 14 126 34 124 33 168
41 37 6 38 7 16 15 -36 14 -12 31 43 31 25 0 44 3 42 7 -3 4 14 6 37 5 26 0
50 5 62 15 18 15 19 15 6 -2 -12 -15 -12 -17 2 -11 8 3 18 12 21 21 4 8 13 13
21 9 8 -3 15 -2 15 2 0 4 30 13 68 19 37 7 101 19 142 28 41 8 104 17 140 20
103 7 52 -19 -67 -34 -54 -7 -109 -15 -123 -17 -14 -3 -27 -5 -29 -4 -2 1 -8
-4 -12 -12 -7 -10 -9 -10 -9 0 0 7 -4 10 -10 7 -5 -3 -10 -10 -10 -14 0 -12
84 -4 88 8 2 7 12 7 28 0 32 -12 43 -11 24 1 -13 8 -12 10 3 10 9 0 17 -4 17
-8 0 -11 81 -9 99 2 11 7 13 5 9 -6 -5 -12 0 -14 25 -12 17 2 34 10 39 17 5 7
8 8 8 1 0 -6 16 -11 36 -12 29 -1 35 2 30 15 -5 13 -4 14 8 4 8 -7 19 -10 24
-7 6 3 16 -2 23 -11 13 -14 11 -16 -14 -11 -15 3 -27 1 -27 -3 0 -5 9 -9 19
-9 11 0 21 -5 23 -11 2 -6 18 -12 36 -12 18 -1 32 -4 32 -7 0 -7 159 -2 178 5
6 2 12 -1 12 -8 0 -9 3 -8 9 1 4 8 12 14 17 15 5 1 8 5 7 9 -2 5 11 8 28 8 21
0 28 4 23 13 -6 9 -5 9 8 0 8 -7 18 -10 21 -6 4 3 7 -1 7 -10 0 -9 8 -21 17
-27 16 -10 15 -10 -3 -5 -14 4 -24 0 -27 -10 -4 -9 -13 -12 -23 -8 -12 4 -15
3 -10 -5 4 -7 1 -12 -9 -12 -9 0 -14 -4 -11 -9 3 -4 -44 -7 -105 -6 -60 1
-112 -2 -115 -6 -3 -5 -14 -3 -25 4 -16 10 -21 9 -28 -1 -5 -8 -21 -11 -44 -8
-21 2 -37 0 -40 -7 -2 -6 -8 -7 -15 -3 -15 9 -4 38 12 29 8 -4 8 -2 -1 7 -9
10 -19 7 -47 -15 -22 -17 -34 -22 -31 -12 4 8 16 17 27 20 12 3 17 10 13 17
-4 6 -13 9 -21 6 -7 -3 -16 -1 -19 4 -4 6 -17 3 -33 -7 -17 -10 -22 -12 -14
-3 14 16 16 34 3 25 -5 -3 -12 -1 -16 5 -4 6 -12 4 -22 -6 -15 -15 -18 -15
-31 2 -13 17 -14 17 -9 1 5 -14 1 -17 -21 -15 -15 1 -33 -1 -39 -5 -7 -4 -10
-1 -8 10 1 10 8 17 14 16 6 -2 11 2 11 7 0 6 -5 10 -11 10 -5 0 -7 5 -3 12 4
7 3 8 -4 4 -7 -4 -38 -9 -70 -12 -31 -2 -67 -6 -79 -8 -11 -3 -43 -8 -70 -12
-26 -3 -54 -11 -60 -16 -7 -6 -13 -8 -13 -6 0 3 -21 1 -47 -3 -27 -4 -66 -11
-88 -14 -22 -4 -44 -10 -50 -13 -5 -4 -16 -7 -24 -9 -8 -1 -72 -14 -143 -29
-127 -28 -128 -29 -128 -56 0 -21 5 -28 19 -28 31 0 178 29 326 65 77 19 165
39 195 44 30 5 72 14 93 19 22 6 39 6 43 1 6 -11 25 -12 21 -1 -1 4 2 8 7 9 5
1 13 7 17 15 7 11 11 10 19 -2 8 -12 2 -18 -25 -29 -19 -7 -35 -18 -35 -22 0
-5 -5 -9 -11 -9 -5 0 -7 5 -4 10 7 12 -8 14 -19 3 -4 -5 -11 -8 -14 -8 -26 -2
-52 -19 -52 -33 0 -14 2 -14 9 -3 5 8 16 11 25 8 9 -4 16 -1 16 5 0 7 4 7 14
-1 7 -6 21 -9 30 -5 9 3 16 2 16 -4 0 -11 -48 -23 -52 -12 -2 4 -18 3 -37 -2
-23 -6 -30 -12 -22 -17 10 -6 9 -10 -3 -14 -10 -4 -16 -1 -16 7 0 17 -24 28
-36 16 -5 -5 -27 -12 -49 -15 -78 -12 -93 -12 -88 0 6 18 -34 25 -48 9 -9 -11
-8 -14 5 -14 9 0 16 -4 16 -10 0 -13 -17 -13 -26 1 -4 8 -8 8 -13 1 -4 -6 -27
-14 -51 -18 -25 -4 -42 -3 -38 1 4 5 24 11 45 14 20 3 38 11 40 18 3 8 -3 10
-19 7 -13 -3 -32 -7 -43 -8 -11 -1 -24 -12 -30 -25 -8 -17 -16 -21 -38 -18
-15 2 -27 -1 -27 -7 0 -6 -5 -4 -10 4 -9 13 -11 13 -20 0 -8 -12 -10 -12 -10
-1 0 10 -3 11 -14 2 -11 -9 -15 -9 -19 1 -3 7 -6 8 -6 3 -1 -6 -18 -9 -41 -7
l-40 4 0 -66 c0 -66 0 -66 28 -66 16 0 32 3 36 7 7 8 15 9 114 19 28 3 52 11
52 16 0 7 5 6 14 -1 11 -9 15 -9 19 1 4 11 6 10 6 0 1 -8 6 -10 14 -6 9 6 9 5
0 -7 -8 -10 -46 -21 -95 -28 -46 -7 -92 -14 -103 -16 -11 -2 -34 -4 -51 -4
l-31 -1 -2 -95 c-2 -85 0 -95 16 -95 17 -1 17 -1 1 -11 -14 -8 -18 -24 -18
-75 0 -41 4 -63 10 -59 6 3 10 1 10 -4 0 -6 -4 -11 -10 -11 -7 0 -10 -163 -10
-470 l0 -470 3840 0 3840 0 0 2665 0 2665 -789 0 c-679 0 -790 -2 -801 -15z
m-1045 -455 c3 -6 -4 -10 -18 -10 -13 0 -46 -3 -73 -6 -35 -5 -46 -3 -39 4 6
6 33 13 60 15 28 2 53 4 57 5 4 1 10 -2 13 -8z m-152 -407 c-7 -2 -19 -2 -25
0 -7 3 -2 5 12 5 14 0 19 -2 13 -5z m-316 -389 l30 -6 -16 -49 -16 -48 -70 1
c-75 2 -166 -16 -202 -38 -12 -8 -39 -13 -60 -12 l-38 1 35 4 c19 3 39 8 45
13 34 27 134 56 190 55 45 -2 48 -1 12 2 -39 3 -47 7 -43 19 3 9 6 18 6 20 0
2 12 4 28 4 16 0 32 8 40 20 13 22 16 23 59 14z m443 -44 c-8 -5 -19 -10 -25
-10 -5 0 -3 5 5 10 8 5 20 10 25 10 6 0 3 -5 -5 -10z m-508 -212 c-7 -7 -12
-20 -12 -29 0 -9 -7 -22 -15 -29 -9 -7 -13 -21 -10 -31 4 -11 2 -19 -4 -19 -6
0 -11 -6 -11 -12 0 -10 -23 -13 -86 -12 -47 1 -88 5 -91 8 -4 3 10 6 30 6 21
0 37 5 37 10 0 6 -26 10 -59 10 -33 0 -63 5 -66 10 -3 6 -29 10 -57 10 -33 0
-55 5 -62 15 -10 12 -25 12 -121 -5 -60 -11 -132 -19 -160 -19 l-50 1 43 13
c23 8 95 19 158 25 64 6 124 15 134 20 25 13 163 13 155 0 -3 -5 -1 -10 4 -10
6 0 11 4 11 9 0 5 39 12 88 16 48 4 94 11 102 16 8 5 24 9 35 9 15 0 16 -3 7
-12z m-562 -138 c-71 -38 -95 -38 -50 0 24 20 46 30 70 30 l35 0 -55 -30z
m849 -159 c9 -6 5 -8 -13 -8 -14 0 -26 3 -26 8 0 11 21 11 39 0z m86 -31 c7
-12 -22 -12 -50 0 -17 7 -15 9 12 9 17 1 35 -3 38 -9z m-491 -89 c3 -4 -12 -8
-33 -7 -22 1 -37 4 -34 9 6 10 61 9 67 -2z m-84 -11 c0 -5 -17 -10 -37 -9 -34
1 -35 2 -13 9 36 11 50 11 50 0z m595 -39 c-6 -6 -30 -13 -55 -16 l-45 -5 35
14 c41 17 79 21 65 7z m-615 -1296 c0 -5 -5 -3 -10 5 -5 8 -10 20 -10 25 0 6
5 3 10 -5 5 -8 10 -19 10 -25z m834 -39 c-3 -9 -10 -13 -16 -10 -5 3 -4 12 3
20 15 18 22 13 13 -10z m-1934 -16 c0 -5 -4 -10 -9 -10 -6 0 -13 5 -16 10 -3
6 1 10 9 10 9 0 16 -4 16 -10z m-724 -30 c56 1 93 -5 106 -19 11 -11 6 -12
-27 -7 -74 12 -359 4 -495 -13 -39 -5 -85 -7 -103 -5 -24 4 -28 2 -17 -5 20
-14 4 -14 -22 0 -16 8 -19 8 -13 -1 5 -9 1 -10 -14 -5 -12 4 -28 2 -34 -4 -15
-11 -57 -11 -57 1 0 4 -8 8 -17 8 -15 0 -16 -2 -3 -10 9 -6 10 -10 3 -10 -6 0
-15 5 -18 11 -7 11 -64 3 -79 -12 -6 -5 -15 -9 -20 -9 -6 0 -4 5 4 10 8 5 15
15 15 22 0 7 18 13 50 14 28 1 68 4 90 7 90 11 355 27 507 30 47 1 90 5 94 10
4 4 11 3 14 -3 4 -6 20 -10 36 -10z m659 0 c-26 -11 -35 -12 -35 -2 0 4 12 8
28 9 23 1 24 1 7 -7z m143 -13 c2 -11 -2 -14 -17 -10 -12 3 -17 11 -14 19 7
18 27 13 31 -9z m-414 2 c10 8 20 10 32 3 10 -5 32 -6 53 -1 20 4 50 7 66 5
17 -2 37 -4 45 -5 14 -2 -94 -36 -152 -48 -15 -3 -26 -9 -23 -13 3 -4 -11 -4
-29 0 -67 15 -250 -1 -331 -29 -27 -10 -56 -16 -64 -13 -9 3 -11 0 -6 -8 6
-10 4 -12 -8 -7 -21 8 -264 -75 -333 -114 -27 -15 -57 -40 -64 -54 -13 -25
-15 -26 -28 -8 -13 15 -14 16 -9 1 4 -11 -1 -19 -14 -23 -12 -4 -18 -12 -15
-21 6 -15 4 -16 -34 -18 -14 0 -27 -3 -30 -6 -3 -3 -27 -16 -55 -30 -55 -28
-147 -81 -155 -89 -9 -10 -70 -11 -70 -2 0 5 14 19 30 31 28 20 44 50 18 34
-6 -4 -32 -8 -57 -9 -25 -1 -57 -5 -70 -9 -15 -5 -21 -5 -17 2 3 5 -1 12 -9
16 -8 3 -19 -3 -24 -12 -6 -10 -11 -12 -11 -4 0 13 -30 17 -30 3 0 -5 -11 -8
-25 -8 -13 0 -22 3 -19 8 8 13 -13 11 -44 -4 -15 -7 -34 -12 -42 -11 -8 1 -24
2 -35 3 -18 2 -17 3 4 12 14 5 34 8 45 7 15 -2 20 2 18 13 -2 13 6 16 38 14
24 -1 40 2 40 9 0 6 4 5 9 -3 6 -9 15 -10 27 -4 11 4 40 8 66 8 27 0 48 5 48
10 0 6 4 4 8 -3 7 -10 15 -10 37 -2 22 8 30 8 37 -2 6 -10 8 -10 8 1 0 10 10
12 41 8 42 -6 75 8 145 60 17 13 35 23 40 23 5 0 20 9 33 19 l23 18 -31 0
c-17 0 -28 -5 -24 -10 4 -6 1 -7 -7 -2 -19 12 -83 10 -108 -4 -12 -7 -29 -8
-43 -3 -21 8 -95 0 -129 -14 -22 -9 -80 -10 -80 -1 0 4 -8 7 -17 7 -15 0 -16
-2 -3 -10 23 -15 6 -12 -25 4 l-28 15 26 6 c15 4 34 4 44 1 9 -4 19 -2 23 4 4
6 50 13 106 16 190 9 315 23 333 37 12 10 13 9 6 -3 -7 -13 -6 -13 7 -2 18 14
109 50 147 58 13 3 34 10 45 17 12 6 24 10 28 9 4 -1 42 9 85 22 43 14 92 27
108 30 17 2 68 12 115 20 47 9 86 16 88 16 2 0 0 5 -3 10 -4 6 -11 8 -16 5 -5
-3 -6 0 -4 7 4 10 21 12 66 8 33 -3 62 -2 65 2 3 4 10 5 17 3 7 -3 26 -1 42 3
19 6 33 5 37 -1 4 -7 12 -6 22 2z m-1566 -64 c-3 -3 -9 2 -12 12 -6 14 -5 15
5 6 7 -7 10 -15 7 -18z m195 18 c-7 -2 -19 -2 -25 0 -7 3 -2 5 12 5 14 0 19
-2 13 -5z m67 3 c0 -2 -7 -7 -16 -10 -8 -3 -12 -2 -9 4 6 10 25 14 25 6z
m1620 -4 c0 -8 -103 -62 -117 -62 -15 0 90 66 110 69 4 0 7 -3 7 -7z m-122
-30 c-21 -15 -135 -9 -152 8 -6 6 20 9 81 7 78 -2 87 -4 71 -15z m236 -10 c3
-5 -1 -9 -9 -9 -8 0 -12 4 -9 9 3 4 7 8 9 8 2 0 6 -4 9 -8z m-1027 -18 c-3 -3
-12 -4 -19 -1 -8 3 -5 6 6 6 11 1 17 -2 13 -5z m983 -14 c0 -5 -4 -10 -9 -10
-5 0 -18 -3 -28 -6 -16 -6 -16 -5 2 9 23 19 35 21 35 7z m1110 -43 c0 -26 -84
-57 -203 -76 -65 -10 -50 1 67 48 75 31 102 38 108 28 5 -8 8 -7 8 6 0 10 5
15 10 12 6 -3 10 -12 10 -18z m-1175 4 c-7 -13 -109 -35 -126 -28 -8 3 0 6 16
7 17 1 46 7 65 14 44 17 53 18 45 7z m-1930 -41 c3 -5 -3 -10 -14 -10 -12 0
-21 5 -21 10 0 6 6 10 14 10 8 0 18 -4 21 -10z m-141 -44 c-3 -9 -10 -16 -15
-16 -5 0 -4 9 3 20 14 22 21 20 12 -4z m49 -13 c-7 -2 -19 -2 -25 0 -7 3 -2 5
12 5 14 0 19 -2 13 -5z m2497 -23 c0 -5 -7 -10 -16 -10 -8 0 -12 5 -9 10 3 6
10 10 16 10 5 0 9 -4 9 -10z m70 -16 c0 -2 -13 -4 -30 -4 -16 0 -30 4 -30 8 0
5 14 7 30 4 17 -2 30 -6 30 -8z m-3470 -34 c0 -5 -4 -10 -10 -10 -5 0 -10 5
-10 10 0 6 5 10 10 10 6 0 10 -4 10 -10z m-70 -10 c-66 -14 -130 -20 -130 -10
0 9 50 16 125 17 l40 1 -35 -8z m720 6 c0 -3 -4 -8 -10 -11 -5 -3 -10 -1 -10
4 0 6 5 11 10 11 6 0 10 -2 10 -4z m6023 -3 c-7 -2 -19 -2 -25 0 -7 3 -2 5 12
5 14 0 19 -2 13 -5z m-3728 -23 c3 -6 -1 -7 -9 -4 -18 7 -21 14 -7 14 6 0 13
-4 16 -10z m-35 -23 c-8 -7 -27 -28 -42 -48 l-27 -36 42 -1 c61 0 77 -4 77
-17 0 -8 -11 -11 -27 -8 -113 16 -127 15 -191 -16 -34 -17 -65 -31 -67 -31 -3
0 -47 -20 -98 -44 -107 -51 -391 -137 -365 -111 3 3 47 17 97 30 50 14 109 34
130 44 21 11 41 17 45 14 3 -4 6 -1 6 5 0 7 5 12 11 12 17 0 183 82 191 94 4
6 10 7 14 3 4 -4 14 2 22 14 8 11 20 18 28 15 8 -3 13 -2 13 2 -3 19 2 25 11
12 8 -13 10 -13 10 1 0 9 16 24 35 35 20 10 34 23 31 29 -2 5 13 11 33 12 29
1 33 0 21 -10z m293 -4 c-7 -2 -21 -2 -30 0 -10 3 -4 5 12 5 17 0 24 -2 18 -5z
m-2583 -28 c-7 -9 -15 -13 -19 -10 -3 3 1 10 9 15 21 14 24 12 10 -5z m-143
-13 c0 -10 -7 -19 -14 -19 -16 0 -16 4 0 22 16 18 16 18 14 -3z m86 -8 c23 -8
22 -19 -3 -21 -11 -1 -18 2 -15 7 3 5 -3 14 -12 20 -10 6 -11 9 -3 6 8 -3 23
-9 33 -12z m407 -28 c0 -9 -40 -13 -46 -5 -3 5 6 9 20 9 14 0 26 -2 26 -4z
m2146 -42 c-3 -8 -10 -14 -16 -14 -6 0 -8 5 -5 10 4 6 -18 10 -59 10 -37 0
-66 4 -66 10 0 9 50 16 75 10 29 -6 60 -1 64 11 4 10 6 9 9 -4 2 -10 1 -25 -2
-33z m-2692 21 c-4 -8 -10 -12 -15 -9 -11 6 -2 24 11 24 5 0 7 -7 4 -15z m62
-4 c-3 -4 8 -5 25 -3 16 2 29 9 29 15 0 6 7 2 15 -9 13 -16 16 -17 25 -4 5 9
10 10 10 3 0 -6 8 -10 18 -8 9 2 21 4 25 4 5 1 5 7 2 14 -4 6 0 4 8 -5 8 -10
17 -15 20 -11 4 3 19 7 34 8 16 1 71 5 123 10 94 8 123 2 45 -8 -22 -3 -53
-10 -68 -16 -14 -6 -59 -13 -99 -16 -40 -4 -89 -8 -108 -11 -58 -7 -360 -9
-360 -3 0 4 7 9 15 13 8 3 15 0 15 -6 0 -7 4 -7 13 1 8 6 17 8 20 5 3 -4 13 1
22 10 18 18 75 22 92 5 7 -7 14 -6 24 4 24 24 68 30 55 8z m2704 1 c0 4 14 3
30 -2 20 -6 30 -5 30 2 0 7 5 6 15 -2 8 -6 23 -9 35 -5 11 3 20 2 20 -3 0 -5
15 -13 33 -16 17 -3 42 -8 55 -10 13 -3 22 0 22 7 0 7 6 4 14 -5 7 -10 15 -15
18 -13 9 9 118 -7 118 -17 0 -6 -11 -7 -24 -4 -14 3 -69 9 -122 12 -54 3 -105
9 -114 13 -8 5 -33 9 -55 9 -70 2 -125 16 -125 32 0 13 34 17 42 5 4 -5 8 -7
8 -3z m-1816 -9 c4 -10 4 -14 0 -10 -4 4 -13 2 -21 -4 -16 -14 -17 3 -1 19 15
15 15 15 22 -5z m-207 -20 c3 -9 -9 -13 -41 -13 -45 0 -72 15 -39 22 37 7 76
3 80 -9z m33 3 c0 -3 -4 -8 -10 -11 -5 -3 -10 -1 -10 4 0 6 5 11 10 11 6 0 10
-2 10 -4z m-180 -16 c-20 -13 -33 -13 -25 0 3 6 14 10 23 10 15 0 15 -2 2 -10z
m-813 -6 c-3 -3 -12 -4 -19 -1 -8 3 -5 6 6 6 11 1 17 -2 13 -5z m743 -14 c0
-11 -2 -20 -3 -20 -2 0 -12 9 -22 20 -18 19 -17 20 3 20 15 0 22 -6 22 -20z
m-98 -5 c5 -6 8 -6 8 1 0 15 42 12 48 -3 2 -7 -1 -13 -8 -13 -6 0 -8 -5 -4
-11 4 -8 -3 -9 -26 -4 -18 4 -30 3 -27 -1 3 -5 -23 -9 -56 -9 -34 0 -78 -3
-97 -7 -118 -26 -187 -39 -280 -53 -151 -22 -287 -44 -351 -55 -77 -14 -122
-13 -117 3 3 6 16 13 29 14 67 4 140 15 189 28 31 8 82 17 115 21 33 3 71 8
85 10 14 2 50 7 80 10 30 4 58 11 61 17 4 5 27 12 50 14 46 3 58 6 99 17 14 4
54 8 90 10 36 2 64 8 63 13 -2 13 40 11 49 -2z m572 6 c7 -11 -64 -49 -81 -44
-7 3 -13 0 -13 -6 0 -11 -114 -10 -125 1 -4 4 4 4 17 1 19 -4 20 -3 8 7 -12
10 -11 11 7 7 13 -3 26 -1 29 5 3 5 15 8 25 5 19 -5 92 13 105 26 10 10 22 9
28 -2z m-1274 -16 c-14 -17 0 -21 17 -4 6 6 13 7 17 1 3 -5 -6 -14 -20 -20
-20 -10 -26 -9 -31 4 -3 9 0 20 8 25 20 13 23 11 9 -6z m3555 5 c3 -5 -1 -10
-10 -10 -9 0 -13 5 -10 10 3 6 8 10 10 10 2 0 7 -4 10 -10z m100 -10 c3 -5 -1
-10 -10 -10 -9 0 -13 5 -10 10 3 6 8 10 10 10 2 0 7 -4 10 -10z m-3691 -23
c13 -10 15 -14 5 -15 -8 0 -27 -3 -44 -7 -30 -6 -30 -6 -10 14 24 24 26 24 49
8z m3756 1 c0 -4 6 -5 14 -2 8 3 17 1 20 -5 4 -6 -4 -9 -21 -7 -16 2 -36 4
-45 5 -10 0 -18 5 -18 10 0 5 11 8 25 7 14 0 25 -4 25 -8z m-2005 -32 c11 -4
30 -10 42 -12 12 -2 35 -9 50 -16 16 -6 30 -12 33 -13 27 -7 50 -18 50 -23 0
-4 21 -8 46 -8 25 -1 51 -7 57 -13 8 -8 -6 -10 -53 -5 -38 4 -70 12 -77 21 -6
8 -14 14 -17 14 -18 -3 -87 13 -92 20 -3 5 -16 9 -29 9 -13 0 -27 5 -30 10 -3
6 -15 10 -26 10 -10 0 -19 5 -19 11 0 6 7 9 15 5 8 -3 15 0 15 7 0 8 3 9 8 1
4 -6 16 -14 27 -18z m-778 -13 c4 -12 -27 -11 -47 2 -6 3 -10 1 -10 -5 0 -6
-4 -8 -10 -5 -5 3 -10 1 -10 -5 0 -7 6 -10 13 -7 7 3 19 -4 26 -15 12 -19 11
-20 -6 -13 -10 4 -24 8 -30 8 -7 0 -13 4 -13 9 0 4 -12 8 -26 8 -17 0 -23 -4
-19 -12 4 -7 1 -6 -7 3 -18 21 -48 31 -49 16 0 -9 -2 -9 -6 1 -2 6 -9 10 -14
6 -9 -5 -13 9 -4 17 10 11 209 3 212 -8z m1543 -13 c0 -5 -4 -10 -10 -10 -5 0
-10 5 -10 10 0 6 5 10 10 10 6 0 10 -4 10 -10z m168 -12 c12 0 22 -4 22 -10 0
-5 5 -6 10 -3 12 7 40 -12 40 -26 0 -5 -12 -4 -27 2 -15 5 -52 12 -83 14 -30
2 -71 11 -90 19 -35 15 -34 15 35 10 39 -3 80 -5 93 -6z m88 -15 c-3 -4 6 -12
21 -19 l28 -12 -27 -1 c-16 -1 -28 1 -28 3 0 2 -3 11 -6 20 -4 10 -1 16 7 16
7 0 9 -3 5 -7z m634 3 c0 -2 -7 -7 -16 -10 -8 -3 -12 -2 -9 4 6 10 25 14 25 6z
m-3590 -35 c0 -4 -6 -8 -13 -8 -8 0 -14 6 -14 13 0 7 6 10 14 7 7 -3 13 -8 13
-12z m2263 2 c-7 -2 -19 -2 -25 0 -7 3 -2 5 12 5 14 0 19 -2 13 -5z m-1083
-24 c0 -8 4 -9 13 0 8 6 17 8 21 4 10 -10 106 -11 106 -1 0 4 4 8 10 8 5 0 7
-7 4 -15 -5 -11 5 -14 53 -11 32 1 66 -2 76 -8 36 -23 15 -29 -70 -21 -49 5
-105 9 -125 9 -21 1 -38 4 -38 7 0 4 -6 7 -12 6 -39 -1 -58 5 -58 18 0 8 5 15
10 15 6 0 10 -5 10 -11z m-53 -5 c-3 -3 -12 -4 -19 -1 -8 3 -5 6 6 6 11 1 17
-2 13 -5z m1973 -9 c0 -8 -4 -15 -8 -15 -5 0 -9 7 -9 15 0 8 4 15 9 15 4 0 8
-7 8 -15z m78 -7 c6 -1 12 -6 12 -11 0 -5 -7 -7 -15 -3 -8 3 -15 1 -15 -4 0
-6 -5 -10 -11 -10 -5 0 -7 5 -4 10 3 6 -3 10 -14 10 -12 0 -21 5 -21 11 0 7
10 9 28 5 15 -4 33 -7 40 -8z m-2650 -11 c31 3 66 4 77 3 11 -1 32 -3 48 -4
15 0 27 -3 27 -6 0 -3 25 -4 55 -3 30 1 55 -3 55 -8 0 -5 -17 -9 -37 -10 -21
-1 -76 -2 -123 -4 -47 -2 -159 -7 -250 -10 -175 -6 -200 -8 -240 -19 -14 -4
-43 -8 -65 -10 -22 -2 -57 -7 -78 -11 -36 -7 -38 -6 -27 11 10 16 26 19 88 21
42 1 83 5 91 9 23 10 36 12 124 20 42 4 77 10 77 15 0 4 19 6 41 4 23 -3 49 0
58 5 9 5 17 5 19 0 2 -5 29 -6 60 -3z m1001 0 c11 3 29 -1 42 -8 17 -9 24 -9
27 0 2 6 10 11 18 11 8 0 11 -6 7 -15 -4 -12 -18 -15 -55 -14 -27 2 -51 6 -54
11 -3 5 -10 6 -15 3 -11 -7 -12 8 -2 19 4 4 9 3 11 -2 2 -6 11 -8 21 -5z
m-639 -7 c0 -5 -8 -10 -17 -10 -15 0 -16 2 -3 10 19 12 20 12 20 0z m70 6 c0
-2 -7 -6 -15 -10 -8 -3 -15 -1 -15 4 0 6 7 10 15 10 8 0 15 -2 15 -4z m741
-65 c-7 -5 -10 -14 -7 -20 4 -6 3 -11 -3 -11 -5 0 -12 4 -16 10 -3 5 -13 6
-22 3 -15 -6 -14 -7 3 -13 15 -6 12 -9 -19 -18 -22 -6 -67 -29 -100 -51 -34
-22 -109 -63 -167 -90 -58 -27 -145 -75 -195 -105 -49 -31 -94 -56 -99 -56 -4
0 -24 -14 -43 -31 -26 -23 -42 -29 -59 -25 -22 6 -34 -7 -16 -17 4 -2 1 -2 -6
-1 -7 2 -15 -3 -18 -11 -4 -8 -11 -15 -18 -15 -6 0 -24 -8 -41 -17 -111 -61
-178 -92 -187 -87 -5 3 -16 -3 -25 -15 -12 -18 -22 -21 -54 -17 -26 3 -39 0
-39 -7 0 -7 -11 -13 -25 -13 -49 -3 -23 22 88 85 169 97 207 124 207 144 0 10
4 16 9 12 5 -3 36 6 68 21 32 14 81 34 108 44 70 25 163 69 170 81 4 5 15 9
26 9 10 0 27 4 37 10 9 5 35 18 57 28 22 10 105 52 184 92 133 67 180 87 206
89 6 0 4 -3 -4 -8z m-1764 -22 c-14 -8 -22 -8 -30 0 -8 8 -3 11 19 11 25 -1
27 -2 11 -11z m2621 -37 c-23 -29 -139 -122 -151 -122 -4 0 -30 -11 -59 -25
-81 -37 -160 -65 -170 -59 -4 3 -8 1 -8 -4 0 -5 -12 -9 -27 -9 l-28 0 30 13
c17 7 38 13 48 14 9 0 17 5 17 11 0 5 5 7 10 4 6 -3 13 1 16 9 3 9 17 16 30
16 16 0 27 8 33 23 5 12 11 21 15 19 16 -8 65 11 93 36 16 16 35 26 41 24 7
-2 12 1 12 6 0 13 89 72 107 72 10 0 8 -8 -9 -28z m-1771 -5 c7 -4 22 -2 33 5
17 11 22 11 30 -2 6 -10 10 -11 10 -3 0 10 6 10 26 1 20 -9 30 -9 45 0 12 8
19 8 19 2 0 -6 22 -9 55 -7 30 1 55 -1 55 -6 0 -5 6 -7 13 -4 6 2 21 1 32 -4
17 -6 17 -8 3 -8 -10 -1 -20 0 -21 2 -2 1 -11 -4 -20 -12 -10 -7 -17 -9 -17
-3 0 6 -31 9 -85 8 -47 -2 -87 -1 -89 1 -2 2 -48 6 -102 9 -55 2 -121 6 -149
7 -27 2 -61 0 -75 -3 -14 -3 -33 -4 -44 -2 -17 4 -16 5 5 15 25 13 256 16 276
4z m-317 -17 c0 -5 -10 -10 -22 -9 -22 0 -22 1 -3 9 11 5 21 9 23 9 1 1 2 -3
2 -9z m-153 -37 c3 -9 -10 -11 -44 -9 -72 5 -73 5 -73 15 0 13 113 8 117 -6z
m2473 7 c0 -5 -2 -10 -4 -10 -3 0 -8 5 -11 10 -3 6 -1 10 4 10 6 0 11 -4 11
-10z m95 1 c3 -6 -3 -9 -14 -8 -11 0 -17 5 -15 9 7 11 22 10 29 -1z m-2738 -7
c-3 -3 -12 -4 -19 -1 -8 3 -5 6 6 6 11 1 17 -2 13 -5z m2918 -14 c3 -5 -1 -10
-10 -10 -9 0 -13 5 -10 10 3 6 8 10 10 10 2 0 7 -4 10 -10z m-3051 -26 c3 -8
-1 -14 -10 -14 -8 0 -12 5 -9 10 3 6 1 10 -4 10 -6 0 -11 -4 -11 -10 0 -5 -13
-10 -30 -10 -16 0 -30 5 -30 11 0 6 9 8 20 4 13 -4 22 -1 26 8 6 18 40 11 48
-9z m3176 16 c0 -5 -4 -10 -10 -10 -5 0 -10 5 -10 10 0 6 5 10 10 10 6 0 10
-4 10 -10z m80 -20 c0 -5 -2 -10 -4 -10 -3 0 -8 5 -11 10 -3 6 -1 10 4 10 6 0
11 -4 11 -10z m-3390 -4 c0 -3 -4 -8 -10 -11 -5 -3 -10 -1 -10 4 0 6 5 11 10
11 6 0 10 -2 10 -4z m180 -6 c0 -5 -2 -10 -4 -10 -3 0 -8 5 -11 10 -3 6 -1 10
4 10 6 0 11 -4 11 -10z m3360 -40 c0 -5 -2 -10 -4 -10 -3 0 -8 5 -11 10 -3 6
-1 10 4 10 6 0 11 -4 11 -10z m-2987 -40 c10 -10 4 -11 -28 -5 -22 5 -50 8
-62 9 -12 1 -25 4 -29 9 -4 4 18 6 50 3 32 -2 63 -9 69 -16z m147 -6 c13 -13
-35 -17 -95 -7 -33 5 -36 7 -17 12 38 10 100 7 112 -5z m40 2 c0 -3 -4 -8 -10
-11 -5 -3 -10 -1 -10 4 0 6 5 11 10 11 6 0 10 -2 10 -4z m40 -11 c0 -8 -4 -15
-9 -15 -13 0 -22 16 -14 24 11 11 23 6 23 -9z m1827 -51 c-3 -3 -12 -4 -19 -1
-8 3 -5 6 6 6 11 1 17 -2 13 -5z m83 -2 c0 -5 -13 -7 -30 -4 -16 2 -30 6 -30
8 0 2 14 4 30 4 17 0 30 -4 30 -8z m91 -4 c22 -6 39 -15 39 -21 0 -5 -8 -6
-17 -1 -10 4 -30 8 -45 9 -67 6 -64 5 -48 15 19 12 25 12 71 -2z m234 -13 c44
0 72 -1 63 -3 -10 -2 -18 -8 -18 -14 0 -12 -200 -6 -220 7 -22 13 8 22 53 16
23 -3 78 -6 122 -6z m-2456 -45 c-25 -7 -89 -17 -168 -25 -21 -2 -30 0 -24 6
5 5 45 12 89 16 43 3 81 7 83 9 2 2 14 4 25 3 17 -1 16 -2 -5 -9z m2901 -80
c0 -5 -2 -10 -4 -10 -3 0 -8 5 -11 10 -3 6 -1 10 4 10 6 0 11 -4 11 -10z
m-1580 -34 c0 -2 -7 -7 -16 -10 -8 -3 -12 -2 -9 4 6 10 25 14 25 6z m663 -12
c6 -7 -73 -83 -97 -94 -6 -3 -31 -18 -55 -34 -76 -49 -169 -85 -351 -137 -211
-60 -313 -78 -341 -61 -10 7 -31 12 -46 12 -35 0 -143 30 -143 41 0 4 30 7 66
7 57 -1 67 -4 74 -22 7 -18 9 -19 15 -4 5 12 13 14 34 8 78 -22 233 6 359 65
29 14 57 25 62 25 5 0 34 11 64 25 30 14 64 25 75 25 12 0 21 4 21 9 0 9 100
61 124 65 21 3 46 26 46 42 0 8 9 14 19 14 11 0 23 5 26 10 7 11 38 13 48 4z
m-111 -36 c-7 -7 -12 -8 -12 -2 0 14 12 26 19 19 2 -3 -1 -11 -7 -17z m235 6
c-3 -3 -12 -4 -19 -1 -8 3 -5 6 6 6 11 1 17 -2 13 -5z m113 -8 c0 -11 -19 -15
-25 -6 -3 5 1 10 9 10 9 0 16 -2 16 -4z m223 -43 c9 -2 17 -12 17 -21 0 -13
17 -23 58 -35 32 -9 62 -17 67 -17 6 0 19 -7 30 -15 17 -14 15 -15 -30 -9 -57
7 -157 53 -151 69 2 7 -9 9 -30 7 -26 -3 -34 0 -34 12 0 16 31 19 73 9z
m-2679 -22 c11 -1 16 -4 12 -8 -4 -5 -40 -8 -79 -9 -40 0 -80 -4 -91 -9 -14
-6 -18 -5 -14 6 4 14 89 28 133 23 11 -1 29 -3 39 -3z m274 2 c67 -11 28 -20
-80 -17 -62 1 -126 3 -141 3 -17 1 -26 5 -22 11 7 11 185 13 243 3z m750 -99
c117 -40 140 -51 119 -60 -9 -3 -32 1 -50 9 -17 9 -58 25 -89 37 -32 12 -60
26 -63 31 -9 13 -1 12 83 -17z m-713 -54 c-3 -5 -10 -10 -16 -10 -5 0 -9 5 -9
10 0 6 7 10 16 10 8 0 12 -4 9 -10z"/>
<path d="M580 1440 c-8 -5 -10 -10 -5 -10 6 0 17 5 25 10 8 5 11 10 5 10 -5 0
-17 -5 -25 -10z"/>
<path d="M1608 333 c7 -3 16 -2 19 1 4 3 -2 6 -13 5 -11 0 -14 -3 -6 -6z"/>
<path d="M4919 5026 c-18 -9 -32 -10 -43 -4 -10 6 -34 8 -54 5 -66 -10 -161
-32 -160 -37 5 -19 -28 -51 -65 -61 -76 -20 -95 -56 -24 -46 114 16 199 40
272 77 44 22 90 40 102 40 27 0 40 19 22 31 -18 11 -19 11 -50 -5z"/>
<path d="M2860 4910 c0 -5 5 -10 10 -10 6 0 10 5 10 10 0 6 -4 10 -10 10 -5 0
-10 -4 -10 -10z"/>
<path d="M3540 4765 c0 -8 7 -15 15 -15 8 0 15 7 15 15 0 8 -7 15 -15 15 -8 0
-15 -7 -15 -15z"/>
<path d="M4415 4490 c-7 -12 22 -12 50 0 17 7 15 9 -12 9 -17 1 -35 -3 -38 -9z"/>
<path d="M1277 4320 c-4 -16 0 -20 18 -20 13 0 28 -8 34 -17 8 -14 12 -15 22
-6 10 10 8 18 -11 38 -28 30 -56 32 -63 5z"/>
<path d="M2248 4263 c-34 -5 -38 -33 -5 -33 12 0 31 7 41 15 11 8 29 12 43 9
12 -4 23 -2 23 3 0 10 -54 13 -102 6z"/>
<path d="M2044 4225 c-9 -23 -3 -25 45 -17 56 9 58 26 3 30 -31 2 -44 -1 -48
-13z"/>
<path d="M1920 4190 c0 -5 5 -10 10 -10 6 0 10 5 10 10 0 6 -4 10 -10 10 -5 0
-10 -4 -10 -10z"/>
<path d="M3895 3560 c-38 -11 -82 -19 -97 -19 -16 -1 -28 -6 -28 -12 0 -12 13
-11 157 13 45 8 86 18 90 22 4 5 -4 6 -19 2 -14 -3 -28 -2 -30 3 -2 5 -34 1
-73 -9z"/>
<path d="M3985 3523 c-16 -2 -41 -8 -55 -13 -14 -4 -37 -11 -52 -14 -16 -4
-28 -11 -28 -16 0 -12 92 -13 106 -2 5 5 28 14 52 21 23 6 42 16 42 21 0 10
-9 10 -65 3z"/>
<path d="M3258 3283 c7 -3 16 -2 19 1 4 3 -2 6 -13 5 -11 0 -14 -3 -6 -6z"/>
<path d="M3188 3273 c7 -3 16 -2 19 1 4 3 -2 6 -13 5 -11 0 -14 -3 -6 -6z"/>
<path d="M3185 3220 c-25 -6 -20 -8 25 -8 30 0 64 3 75 8 26 11 -56 11 -100 0z"/>
<path d="M3045 3200 c-3 -5 1 -10 9 -10 8 0 18 5 21 10 3 6 -1 10 -9 10 -8 0
-18 -4 -21 -10z"/>
<path d="M3098 3203 c6 -2 18 -2 25 0 6 3 1 5 -13 5 -14 0 -19 -2 -12 -5z"/>
<path d="M3395 3200 c-19 -8 -19 -9 2 -9 12 -1 25 4 28 9 7 12 -2 12 -30 0z"/>
<path d="M3245 3193 c-86 -9 -311 -47 -320 -56 -6 -6 -3 -7 10 -3 11 3 97 12
190 21 198 18 232 23 240 35 5 8 -47 9 -120 3z"/>
<path d="M3450 3185 c-7 -9 -15 -14 -17 -12 -2 3 -43 -7 -91 -20 -99 -27 -170
-39 -137 -24 15 7 0 10 -53 9 -65 0 -73 -3 -69 -18 5 -20 -45 -39 -109 -41
-22 -1 -30 -3 -19 -6 36 -9 75 -54 75 -88 0 -58 -30 -74 -145 -76 -55 -1 -110
1 -123 5 -13 4 -28 3 -35 -2 -7 -5 -33 -15 -59 -22 -28 -7 -48 -18 -48 -26 0
-8 6 -14 13 -14 19 -1 -18 -19 -70 -35 -25 -8 -50 -12 -55 -9 -5 3 -21 2 -36
-2 l-27 -7 30 -8 c28 -6 29 -7 8 -14 -13 -4 -23 -11 -23 -15 0 -12 57 -17 76
-7 11 6 19 5 24 -3 5 -9 17 -10 36 -5 43 12 55 14 108 19 26 3 72 8 102 12 38
4 54 3 54 -5 0 -8 10 -6 30 5 32 20 34 32 2 15 -16 -8 -20 -8 -18 4 4 28 38
54 88 66 28 6 92 26 142 43 l91 32 -3 38 c-3 29 2 44 19 62 22 24 26 24 199
24 164 0 179 2 204 21 32 25 36 77 8 102 -25 23 -154 24 -172 2z"/>
<path d="M2963 3183 c9 -2 25 -2 35 0 9 3 1 5 -18 5 -19 0 -27 -2 -17 -5z"/>
<path d="M3029 3119 c-10 -6 -7 -9 14 -9 29 0 35 5 14 13 -8 3 -20 1 -28 -4z"/>
<path d="M3186 2901 c-10 -11 -25 -19 -34 -19 -29 2 -112 -43 -112 -61 0 -11
-3 -12 -8 -4 -5 8 -20 5 -56 -12 -91 -44 -87 -45 193 -45 144 0 260 4 257 8
-3 5 4 8 16 8 28 -1 49 31 28 44 -12 8 -12 10 2 15 21 8 12 42 -18 62 -18 11
-45 14 -116 11 -51 -1 -102 1 -114 5 -15 5 -26 2 -38 -12z m107 -118 c3 -5
-18 -9 -47 -10 -42 -1 -45 0 -21 7 41 11 63 11 68 3z m95 -10 c-16 -2 -40 -2
-55 0 -16 2 -3 4 27 4 30 0 43 -2 28 -4z"/>
<path d="M3745 2885 c-31 -30 -33 -75 -5 -100 22 -20 111 -32 154 -21 26 6 56
51 56 81 0 9 -11 27 -25 40 -21 22 -33 25 -90 25 -57 0 -69 -3 -90 -25z"/>
<path d="M2340 2820 c-20 -6 -21 -8 -5 -8 11 0 31 4 45 8 20 6 21 8 5 8 -11 0
-31 -4 -45 -8z"/>
<path d="M2215 2799 c-16 -4 -48 -10 -70 -14 -22 -4 -35 -10 -28 -12 6 -2 38
1 70 7 32 6 72 14 88 17 17 3 32 7 34 9 6 6 -61 1 -94 -7z"/>
<path d="M2837 2714 c-3 -3 -26 -7 -52 -9 -26 -2 -49 -6 -52 -9 -5 -4 24 -4
130 3 9 1 17 5 17 9 0 9 -35 13 -43 6z"/>
<path d="M2546 2692 c-11 -18 19 -29 64 -23 55 7 55 23 -1 28 -32 3 -39 1 -33
-9 6 -11 5 -11 -8 0 -9 8 -19 9 -22 4z"/>
<path d="M2417 2678 c-7 -4 -29 -8 -49 -8 -21 0 -38 -3 -38 -8 0 -4 -34 -8
-77 -9 -48 -1 -79 -7 -84 -14 -6 -10 -11 -10 -25 2 -10 8 -15 9 -11 2 5 -7 1
-12 -10 -12 -39 -1 -52 -5 -47 -13 6 -9 102 -9 118 0 4 2 29 6 55 7 118 7 257
24 284 34 17 6 18 9 6 17 -17 11 -105 12 -122 2z"/>
<path d="M2841 2659 c-14 -5 -31 -7 -38 -5 -7 3 -13 1 -13 -4 0 -5 -7 -7 -15
-4 -12 5 -127 -7 -200 -20 -11 -2 -42 -6 -70 -10 -78 -11 -232 -36 -315 -51
-41 -8 -102 -16 -135 -20 -33 -3 -87 -12 -120 -19 -110 -24 -11 -34 110 -12
35 7 62 11 125 20 25 4 70 11 100 16 80 14 324 48 404 56 38 3 81 9 95 13 14
4 49 7 77 7 50 -1 51 0 41 22 -11 25 -12 25 -46 11z"/>
<path d="M1892 2653 c-18 -2 -30 -8 -28 -12 3 -4 -11 -8 -31 -9 -39 -2 -137
-31 -130 -39 3 -2 22 0 44 6 21 6 73 17 115 26 43 9 80 20 83 26 4 5 0 8 -7 7
-7 0 -28 -3 -46 -5z"/>
<path d="M1530 2600 l-25 -8 25 0 c14 0 34 3 45 8 l20 9 -20 -1 c-11 0 -31 -4
-45 -8z"/>
<path d="M2950 2584 c-47 -7 -88 -10 -93 -7 -4 2 -15 -1 -23 -8 -11 -9 -18 -9
-22 -2 -7 10 -26 10 -107 -1 -55 -8 -175 -18 -202 -17 -12 0 -25 -4 -28 -9 -6
-10 7 -14 33 -11 6 1 12 -3 12 -9 0 -7 6 -8 18 -2 9 5 33 8 52 6 19 -1 40 2
46 7 8 7 14 7 18 0 5 -7 15 -7 33 0 15 5 46 11 69 12 23 1 40 6 37 11 -4 6 1
6 13 1 10 -5 35 -9 54 -9 64 0 244 24 254 34 7 7 3 10 -9 11 -11 1 -31 2 -45
3 -14 1 -64 -4 -110 -10z"/>
<path d="M3175 2571 c-95 -43 -138 -67 -163 -94 l-23 -24 222 -2 c245 -1 262
2 274 58 7 35 -12 71 -38 71 -10 0 -15 5 -12 10 4 6 -30 10 -97 9 -89 -1 -111
-5 -163 -28z m175 -10 c-41 -10 -99 -25 -127 -34 -29 -9 -53 -14 -53 -11 0 3
28 18 63 34 50 24 75 30 127 29 l65 -1 -75 -17z"/>
<path d="M4097 2589 c-41 -24 -39 -106 3 -129 10 -6 73 -10 139 -10 107 0 123
2 141 20 31 31 36 68 13 98 -20 27 -22 27 -149 29 -78 2 -136 -2 -147 -8z"/>
<path d="M1450 2580 c-12 -8 -12 -10 5 -10 11 0 27 5 35 10 12 8 12 10 -5 10
-11 0 -27 -5 -35 -10z"/>
<path d="M1888 2574 c-3 -3 -27 -7 -52 -9 -26 -3 -59 -12 -74 -21 -15 -8 -18
-13 -8 -9 11 3 40 8 65 11 41 5 111 33 85 34 -6 0 -13 -2 -16 -6z"/>
<path d="M2375 2530 c-4 -6 -11 -8 -16 -5 -5 4 -9 1 -9 -4 0 -16 26 -13 40 4
8 9 9 15 2 15 -6 0 -14 -5 -17 -10z"/>
<path d="M2410 2528 c0 -5 11 -8 25 -8 14 0 25 4 25 9 0 5 -11 8 -25 7 -14 0
-25 -4 -25 -8z"/>
<path d="M1305 2483 c-70 -17 -102 -39 -40 -27 50 9 147 44 120 43 -11 -1 -47
-8 -80 -16z"/>
<path d="M2549 2470 c-9 -5 -30 -8 -48 -5 -33 4 -37 -1 -21 -25 8 -13 10 -12
10 3 0 23 17 22 30 -3 6 -11 16 -20 23 -20 8 0 6 4 -3 10 -13 9 -11 13 10 30
26 21 26 26 -1 10z"/>
<path d="M145 2460 c-13 -5 -14 -9 -5 -9 8 0 24 4 35 9 13 5 14 9 5 9 -8 0
-24 -4 -35 -9z"/>
<path d="M1678 2465 c-6 -6 -53 -17 -75 -18 -7 0 -13 -4 -13 -9 0 -5 -9 -7
-20 -3 -10 3 -32 -1 -47 -10 -28 -16 -27 -16 27 -10 84 9 198 40 176 48 -21 8
-41 9 -48 2z"/>
<path d="M2411 2465 c-1 -5 -26 -11 -57 -12 -31 -2 -63 -8 -70 -14 -11 -9 -14
-8 -14 3 0 10 -12 14 -39 13 -21 0 -37 -3 -35 -6 2 -4 -6 -7 -19 -6 -63 1
-181 -13 -187 -24 -5 -7 -10 -8 -14 -1 -9 15 -46 2 -46 -17 0 -13 2 -13 9 -2
7 10 13 11 30 2 11 -7 21 -9 21 -5 0 3 6 2 13 -4 7 -6 18 -7 27 -2 7 4 23 5
34 1 28 -11 96 -2 96 13 0 7 3 6 9 -2 6 -11 17 -11 47 -4 48 13 139 25 179 25
17 0 35 4 42 9 7 5 17 7 22 3 7 -3 8 0 5 9 -7 19 -34 21 -35 4 0 -7 -4 -4 -9
7 -5 11 -9 16 -9 10z m-196 -45 c3 -5 1 -10 -4 -10 -6 0 -11 5 -11 10 0 6 2
10 4 10 3 0 8 -4 11 -10z"/>
<path d="M5 2450 c-3 -5 1 -10 10 -10 9 0 13 5 10 10 -3 6 -8 10 -10 10 -2 0
-7 -4 -10 -10z"/>
<path d="M890 2420 c-36 -9 -75 -22 -85 -28 -38 -22 26 -14 105 13 114 39 103
48 -20 15z"/>
<path d="M1834 2421 c-4 -4 -48 -9 -99 -12 -36 -2 -85 -20 -80 -30 4 -5 11 -9
16 -9 6 0 7 5 4 10 -3 6 -1 10 4 10 6 0 11 -4 11 -9 0 -12 50 -4 67 11 9 7 13
7 13 -1 0 -7 14 -11 35 -9 19 1 35 6 35 10 0 12 28 9 32 -3 2 -7 9 -5 17 5 12
14 12 16 -3 10 -9 -3 -16 -1 -16 4 0 6 8 13 18 15 9 2 2 4 -16 3 -19 0 -35 -3
-38 -5z"/>
<path d="M120 2387 c-37 -12 -57 -22 -47 -25 17 -4 104 24 122 40 13 12 -1 9
-75 -15z"/>
<path d="M270 2390 c-13 -9 -13 -10 0 -10 8 0 22 5 30 10 13 9 13 10 0 10 -8
0 -22 -5 -30 -10z"/>
<path d="M535 2390 c-13 -5 -14 -9 -5 -9 8 0 24 4 35 9 13 5 14 9 5 9 -8 0
-24 -4 -35 -9z"/>
<path d="M688 2393 c7 -3 16 -2 19 1 4 3 -2 6 -13 5 -11 0 -14 -3 -6 -6z"/>
<path d="M1178 2383 c-16 -3 -28 -11 -28 -19 0 -9 5 -12 11 -8 6 4 32 12 58
19 37 11 40 13 16 13 -16 -1 -42 -3 -57 -5z"/>
<path d="M458 2363 c7 -3 16 -2 19 1 4 3 -2 6 -13 5 -11 0 -14 -3 -6 -6z"/>
<path d="M2236 2363 c-7 -7 -22 -9 -135 -18 -35 -2 -69 -9 -77 -16 -7 -6 -17
-8 -22 -6 -4 3 -14 2 -22 -4 -12 -7 -10 -9 8 -9 12 0 22 -3 22 -7 0 -14 73
-14 82 -1 5 9 8 10 8 1 0 -13 121 -8 130 6 3 5 25 8 49 8 34 0 45 4 47 17 1
10 -3 19 -9 21 -31 9 -75 13 -81 8z"/>
<path d="M104 2341 c-57 -18 -104 -38 -104 -45 0 -3 168 47 195 58 29 12 -38
2 -91 -13z"/>
<path d="M275 2353 c-11 -3 -24 -10 -30 -15 -7 -7 -2 -8 15 -3 52 15 64 30 15
18z"/>
<path d="M1066 2353 c-4 -5 -12 -9 -17 -9 -5 -1 -13 -2 -19 -3 -5 0 -10 -5
-10 -10 0 -10 101 8 115 20 5 5 -6 9 -26 9 -20 0 -39 -3 -43 -7z"/>
<path d="M338 2331 c-54 -20 -76 -35 -32 -22 55 17 109 40 94 39 -8 0 -36 -8
-62 -17z"/>
<path d="M2557 2344 c-6 -6 -77 -14 -129 -15 -10 0 -18 -4 -18 -9 0 -4 -7 -10
-14 -13 -10 -4 -13 -1 -10 8 4 10 -2 10 -30 -3 -43 -19 -55 -42 -23 -43 12 -1
26 -1 31 0 5 1 49 3 97 4 48 1 85 5 82 10 -2 4 1 7 6 7 6 0 11 -5 11 -10 0 -6
11 -8 28 -3 15 3 36 6 47 6 15 0 14 2 -7 10 -14 6 -32 21 -39 34 -13 24 -21
28 -32 17z m-190 -60 c-3 -3 -12 -4 -19 -1 -8 3 -5 6 6 6 11 1 17 -2 13 -5z"/>
<path d="M828 2333 c6 -2 18 -2 25 0 6 3 1 5 -13 5 -14 0 -19 -2 -12 -5z"/>
<path d="M778 2325 c-3 -3 -15 -7 -26 -10 -56 -10 -142 -39 -142 -46 0 -13 4
-12 107 17 51 15 90 31 87 35 -6 10 -18 12 -26 4z"/>
<path d="M970 2320 c0 -13 11 -13 30 0 12 8 11 10 -7 10 -13 0 -23 -4 -23 -10z"/>
<path d="M1503 2323 c-13 -2 -23 -9 -23 -14 0 -13 13 -11 36 6 10 8 17 14 14
13 -3 0 -15 -3 -27 -5z"/>
<path d="M83 2293 c-46 -14 -83 -30 -83 -34 0 -9 69 10 145 40 70 28 36 24
-62 -6z"/>
<path d="M1145 2311 c-11 -5 -23 -7 -27 -4 -10 5 -51 -17 -45 -24 8 -7 117 19
117 29 0 10 -18 9 -45 -1z"/>
<path d="M1440 2310 c0 -5 5 -10 11 -10 5 0 7 5 4 10 -3 6 -8 10 -11 10 -2 0
-4 -4 -4 -10z"/>
<path d="M895 2300 c-19 -8 -19 -9 3 -9 12 -1 22 4 22 9 0 6 -1 10 -2 9 -2 0
-12 -4 -23 -9z"/>
<path d="M135 2269 c-44 -15 -92 -30 -108 -33 -15 -4 -27 -12 -27 -19 0 -10
38 0 127 30 70 24 129 46 132 48 12 13 -52 0 -124 -26z"/>
<path d="M1347 2293 c-1 0 -18 -4 -37 -7 -19 -3 -64 -15 -100 -27 -36 -12 -75
-21 -87 -21 -12 0 -24 -7 -27 -14 -7 -19 -3 -18 131 17 65 16 129 32 142 35
45 9 54 21 16 20 -20 -1 -37 -2 -38 -3z"/>
<path d="M2895 2288 c-66 -4 -149 -13 -184 -21 -35 -8 -72 -12 -82 -10 -10 3
-34 0 -54 -7 -20 -7 -89 -14 -153 -16 -188 -6 -192 -7 -192 -24 0 -10 -3 -11
-8 -3 -7 11 -62 14 -62 3 0 -3 -8 -6 -17 -7 -10 -1 -47 -4 -83 -7 -36 -3 -84
-8 -107 -11 -23 -3 -75 -10 -115 -15 -40 -6 -95 -12 -123 -15 -27 -2 -63 -7
-80 -11 -16 -3 -50 -7 -75 -8 -34 -1 -45 -5 -44 -17 1 -11 -5 -15 -17 -12 -11
3 -16 10 -12 17 3 6 -5 1 -19 -12 -13 -12 -27 -20 -30 -17 -3 3 -8 -1 -11 -9
-4 -11 0 -13 16 -9 12 2 38 6 57 7 19 2 35 4 35 5 0 2 35 5 175 16 47 4 87 10
90 15 3 4 14 7 25 7 17 -1 141 10 215 19 14 2 52 5 85 8 33 3 74 7 90 9 17 3
33 0 37 -7 6 -8 8 -7 8 2 0 8 8 10 25 6 16 -4 25 -2 25 5 0 9 5 9 21 0 15 -8
19 -8 15 0 -4 6 -2 11 3 11 6 0 11 -4 11 -9 0 -5 19 -7 43 -6 88 7 261 13 244
8 -10 -2 -14 -9 -10 -16 4 -7 0 -7 -10 1 -9 8 -20 11 -25 8 -5 -3 -44 -8 -88
-11 -116 -9 -118 -9 -126 -20 -5 -6 -8 -5 -8 3 0 7 -3 11 -7 9 -5 -3 -42 -8
-83 -12 -41 -3 -82 -8 -90 -10 -19 -5 -114 -15 -197 -20 -34 -2 -70 -8 -80
-13 -10 -5 -24 -7 -30 -5 -7 3 -13 0 -13 -5 0 -5 -22 -7 -50 -5 -30 2 -50 0
-50 -6 0 -7 -9 -7 -25 -1 -19 7 -27 6 -34 -8 -7 -11 -11 -12 -11 -4 0 9 -7 11
-22 7 -13 -4 -27 -8 -33 -9 -5 0 -13 -5 -17 -11 -4 -6 -8 -2 -8 8 0 10 -8 17
-20 17 -11 0 -20 -4 -20 -10 0 -5 -15 -9 -32 -9 -18 1 -44 -3 -58 -9 -14 -5
-38 -8 -53 -7 -15 2 -27 0 -27 -5 0 -4 -16 -7 -35 -6 -19 1 -35 -1 -35 -5 0
-3 -25 -6 -56 -7 -36 0 -60 -5 -65 -14 -6 -8 -9 -9 -9 -1 0 16 -89 10 -100 -6
-5 -10 -9 -10 -14 -2 -4 6 -11 9 -15 6 -5 -2 -28 -7 -52 -9 -24 -3 -59 -10
-76 -15 -18 -5 -33 -7 -33 -4 0 3 -12 -2 -26 -12 -14 -9 -32 -14 -40 -11 -19
7 -64 -14 -64 -31 0 -16 -17 -18 -22 -2 -2 7 -9 5 -17 -5 -12 -14 -10 -16 18
-16 17 0 31 4 31 8 0 5 15 8 33 7 31 -2 200 19 242 30 11 3 37 8 58 11 20 4
37 10 37 14 0 5 9 6 20 3 24 -6 73 5 66 15 -2 4 12 7 32 6 51 -3 83 6 76 20
-3 6 1 3 9 -6 13 -16 15 -16 35 3 14 13 22 15 22 7 0 -10 2 -10 9 1 6 9 11 10
15 2 4 -6 12 -9 17 -6 5 4 9 -2 10 -12 1 -13 3 -11 9 7 6 19 8 20 9 6 1 -12 6
-16 17 -12 8 3 12 2 9 -4 -3 -6 -2 -10 4 -10 5 0 17 -3 27 -7 10 -3 15 -2 12
3 -4 5 5 9 18 9 13 0 24 -3 24 -7 0 -4 12 -3 27 3 15 6 53 12 83 15 107 9 128
12 151 20 13 4 44 8 69 9 94 5 177 16 222 31 35 11 56 13 83 5 20 -5 33 -6 30
0 -4 5 2 9 12 10 41 3 71 5 131 13 47 6 67 5 79 -5 12 -10 15 -10 9 -1 -9 15
-10 14 134 17 73 2 120 -2 129 -9 11 -8 13 -8 7 2 -4 7 -2 12 4 12 6 0 8 5 5
10 -3 6 -2 10 3 10 5 0 12 -8 14 -18 5 -18 38 -27 38 -10 0 4 7 8 15 8 8 0 15
-4 15 -8 0 -5 14 -9 30 -10 22 0 30 4 30 16 0 11 3 13 8 6 10 -15 80 -25 88
-13 4 6 11 6 20 -2 8 -6 14 -8 14 -5 0 4 9 2 20 -4 14 -8 20 -8 20 0 0 6 7 4
16 -4 17 -17 28 -21 20 -7 -3 5 8 11 25 13 19 3 28 1 26 -6 -3 -7 19 -11 62
-11 l67 0 3 39 c2 47 9 59 27 52 7 -3 16 -1 19 5 4 5 3 8 -2 7 -4 -2 -9 2 -10
7 -3 9 27 10 122 3 22 -2 45 -6 50 -10 6 -3 40 -5 78 -4 37 0 67 -1 67 -5 0
-7 160 -3 167 5 3 3 13 1 22 -4 31 -16 66 11 69 53 3 38 -2 42 -55 40 -7 -1
-13 4 -13 9 0 5 14 7 33 3 30 -6 31 -5 12 10 -15 12 -40 15 -100 14 -44 -1
-74 -4 -67 -6 6 -3 12 -9 12 -14 0 -4 -12 -4 -27 2 -25 9 -238 17 -593 22 -69
1 -179 -1 -245 -5z m945 -16 c0 -5 -16 -8 -35 -8 -46 1 -46 16 0 16 19 0 35
-4 35 -8z m-1222 -29 c-10 -2 -18 -9 -18 -15 0 -6 -3 -9 -6 -5 -10 10 6 27 24
26 15 -1 15 -2 0 -6z m452 -2 c0 -5 15 -7 33 -4 58 7 167 8 167 1 0 -4 6 -5
13 -3 20 8 167 12 167 4 0 -4 10 -10 23 -14 14 -4 17 -8 9 -12 -7 -3 -20 -1
-30 3 -9 4 -21 6 -27 5 -22 -6 -92 -4 -103 3 -7 4 -17 4 -23 0 -6 -4 -52 -6
-101 -5 -65 2 -88 -1 -83 -9 5 -8 2 -9 -11 -2 -11 5 -35 17 -54 25 -34 15 -35
16 -7 16 15 1 27 -3 27 -8z m-80 -10 c0 -5 -7 -12 -16 -15 -14 -5 -15 -4 -4 9
14 17 20 19 20 6z m37 -7 c-3 -3 -12 -4 -19 -1 -8 3 -5 6 6 6 11 1 17 -2 13
-5z m-292 -44 c-3 -5 -10 -10 -16 -10 -5 0 -9 5 -9 10 0 6 7 10 16 10 8 0 12
-4 9 -10z m128 3 c-7 -2 -19 -2 -25 0 -7 3 -2 5 12 5 14 0 19 -2 13 -5z m477
-3 c0 -5 -7 -10 -16 -10 -8 0 -13 -4 -10 -9 3 -5 -6 -11 -19 -14 -14 -2 -28 0
-31 5 -3 5 -13 3 -22 -4 -13 -11 -15 -11 -10 3 5 12 1 15 -19 13 -14 -1 -30
-9 -34 -16 -7 -11 -9 -11 -9 0 0 9 -7 11 -20 7 -11 -3 -20 -2 -20 3 0 11 5 11
104 17 44 3 82 7 84 10 9 9 22 6 22 -5z m-286 -18 c3 -5 -1 -9 -9 -9 -8 0 -15
4 -15 9 0 4 4 8 9 8 6 0 12 -4 15 -8z"/>
<path d="M3188 2233 c7 -3 16 -2 19 1 4 3 -2 6 -13 5 -11 0 -14 -3 -6 -6z"/>
<path d="M848 2283 c7 -3 16 -2 19 1 4 3 -2 6 -13 5 -11 0 -14 -3 -6 -6z"/>
<path d="M218 2246 c-59 -17 -113 -37 -120 -44 -6 -6 -8 -12 -3 -12 16 0 220
72 230 81 5 5 7 9 5 8 -3 -1 -53 -15 -112 -33z"/>
<path d="M565 2260 c-19 -8 -19 -9 3 -9 12 -1 22 4 22 9 0 6 -1 10 -2 9 -2 0
-12 -4 -23 -9z"/>
<path d="M1820 2263 c-19 -2 -42 -6 -50 -10 -15 -6 -26 -8 -63 -11 -10 -1 -16
-6 -13 -10 2 -4 -3 -8 -12 -8 -9 -1 -26 -5 -36 -9 -14 -6 -17 -5 -12 3 5 8 2
10 -8 6 -9 -3 -16 -10 -16 -15 0 -5 -6 -9 -14 -9 -8 0 -17 -4 -21 -9 -3 -6 4
-8 16 -6 13 3 26 10 31 17 5 9 8 9 8 1 0 -11 24 -11 130 2 14 1 34 3 45 4 18
2 18 3 -5 17 l-25 15 25 -7 c14 -4 27 -11 28 -15 2 -5 8 -9 13 -9 6 0 8 4 5 9
-4 5 4 7 16 3 13 -3 19 -1 15 5 -4 6 1 14 10 17 15 6 15 8 3 16 -8 6 -19 9
-25 8 -5 -1 -26 -3 -45 -5z"/>
<path d="M335 2235 c-32 -10 -35 -13 -15 -14 14 0 39 6 55 14 38 17 12 18 -40
0z"/>
<path d="M1424 2239 c-3 -6 -15 -8 -26 -5 -18 4 -47 1 -147 -19 -14 -2 -29 -9
-35 -15 -5 -5 -25 -10 -43 -10 -20 0 -33 -5 -33 -12 0 -9 -4 -8 -10 2 -8 13
-10 13 -10 -2 0 -12 -6 -16 -21 -13 -12 3 -29 0 -38 -6 -14 -9 -14 -10 2 -5 9
3 17 2 17 -3 0 -8 53 -6 79 4 8 3 30 8 50 11 137 19 259 53 240 65 -9 6 -10 9
-2 9 6 0 15 -4 18 -10 8 -13 18 -13 39 3 17 12 14 14 -27 15 -25 1 -49 -3 -53
-9z"/>
<path d="M1535 2240 c-7 -12 2 -12 30 0 19 8 19 9 -2 9 -12 1 -25 -3 -28 -9z"/>
<path d="M2033 2242 c-18 -2 -33 -8 -33 -13 0 -6 -5 -7 -12 -3 -6 4 -8 3 -5
-3 4 -7 22 -7 49 -2 24 4 60 8 81 9 23 0 36 4 32 10 -6 10 -28 10 -112 2z"/>
<path d="M2160 2239 c0 -5 5 -7 10 -4 6 3 10 8 10 11 0 2 -4 4 -10 4 -5 0 -10
-5 -10 -11z"/>
<path d="M871 2229 c-18 -6 -31 -13 -28 -16 8 -7 66 7 72 18 7 11 1 10 -44 -2z"/>
<path d="M1930 2220 c-9 -6 -10 -10 -3 -10 6 0 15 5 18 10 8 12 4 12 -15 0z"/>
<path d="M218 2197 c-27 -6 -48 -14 -48 -19 0 -4 3 -8 6 -8 13 0 114 32 114
36 0 5 -15 4 -72 -9z"/>
<path d="M545 2191 c-33 -9 -65 -19 -71 -23 -6 -4 -25 -9 -42 -10 -17 -1 -29
-5 -27 -8 2 -3 -32 -14 -76 -23 -59 -14 -79 -22 -79 -35 0 -12 3 -13 12 -4 7
7 22 12 34 12 12 0 62 13 111 29 48 15 121 38 161 50 110 33 92 43 -23 12z"/>
<path d="M785 2200 c3 -5 8 -10 11 -10 2 0 4 5 4 10 0 6 -5 10 -11 10 -5 0 -7
-4 -4 -10z"/>
<path d="M28 2188 c-16 -5 -28 -14 -28 -20 0 -6 7 -7 16 -4 9 3 27 9 40 12 13
3 24 10 24 15 0 11 -17 10 -52 -3z"/>
<path d="M95 2157 c-16 -5 -38 -13 -47 -18 -10 -5 -25 -9 -33 -9 -8 0 -15 -5
-15 -11 0 -6 9 -8 23 -4 85 26 123 39 129 44 12 10 -24 9 -57 -2z"/>
<path d="M266 2154 c-4 -10 2 -10 25 -2 36 12 37 18 4 16 -13 -1 -27 -8 -29
-14z"/>
<path d="M3405 2160 c-3 -5 -1 -10 4 -10 6 0 11 5 11 10 0 6 -2 10 -4 10 -3 0
-8 -4 -11 -10z"/>
<path d="M204 2142 c3 -6 -13 -13 -40 -17 -26 -3 -56 -10 -68 -15 -11 -5 -38
-11 -58 -15 -30 -5 -38 -10 -38 -26 0 -13 5 -19 13 -15 6 2 58 20 114 38 95
31 117 45 83 56 -7 3 -10 0 -6 -6z"/>
<path d="M495 2127 c-138 -41 -163 -51 -159 -62 5 -13 51 -8 59 6 3 4 11 6 19
3 7 -3 26 1 42 7 16 7 31 13 34 14 3 1 33 9 68 19 34 10 62 22 62 26 0 12 -62
6 -125 -13z"/>
<path d="M815 2139 c-4 -5 -11 -7 -16 -4 -5 4 -9 1 -9 -5 0 -8 9 -10 28 -5 35
8 47 20 22 22 -11 1 -22 -3 -25 -8z"/>
<path d="M1368 2144 c-4 -3 -26 -8 -50 -10 -24 -2 -59 -7 -78 -9 -19 -3 -47
-6 -62 -7 -16 -1 -28 -4 -28 -8 0 -3 -12 -6 -27 -6 -16 1 -27 -4 -26 -10 1 -7
-7 -10 -20 -8 -12 2 -16 2 -9 -2 6 -3 12 -10 12 -15 0 -6 -4 -7 -10 -4 -5 3
-10 -1 -10 -9 0 -19 -3 -18 40 -6 19 6 71 15 115 20 44 5 104 19 133 29 59 22
56 21 80 21 14 1 15 2 2 9 -25 14 -56 22 -62 15z"/>
<path d="M750 2120 c20 -13 33 -13 25 0 -3 6 -14 10 -23 10 -15 0 -15 -2 -2
-10z"/>
<path d="M170 2080 c0 -5 -12 -10 -27 -10 -17 0 -23 -4 -17 -9 11 -12 104 6
104 20 0 5 -13 9 -30 9 -16 0 -30 -4 -30 -10z"/>
<path d="M635 2080 c-3 -5 -1 -10 4 -10 6 0 11 5 11 10 0 6 -2 10 -4 10 -3 0
-8 -4 -11 -10z"/>
<path d="M950 2073 c0 -6 9 -9 20 -6 30 8 32 18 4 18 -13 0 -24 -5 -24 -12z"/>
<path d="M845 2072 c-1 -2 -21 -5 -44 -7 -44 -5 -111 -31 -123 -49 -5 -7 -8
-7 -8 1 0 13 -26 13 -47 0 -7 -5 -13 -5 -13 0 0 4 -4 2 -9 -6 -5 -7 -20 -13
-35 -13 -14 0 -23 -4 -21 -8 3 -5 -28 -13 -67 -20 -40 -6 -89 -16 -108 -21
-19 -4 -53 -11 -75 -15 -22 -3 -48 -10 -57 -15 -9 -5 -29 -10 -43 -11 -16 -2
-24 -7 -21 -15 4 -10 1 -10 -14 -1 -15 10 -22 9 -38 -5 -10 -9 -22 -14 -25
-10 -4 3 -7 1 -7 -5 0 -7 -8 -12 -17 -13 -15 0 -15 -2 2 -8 11 -5 22 -5 25 -1
3 4 19 7 35 7 29 0 56 6 173 39 29 9 61 17 71 19 10 2 56 15 102 30 46 15 98
29 114 32 17 3 71 16 120 30 50 13 108 28 130 33 22 5 53 15 70 24 l29 15 -48
-2 c-26 -1 -49 -3 -51 -5z"/>
<path d="M285 2060 c-17 -8 -16 -8 8 -7 15 1 27 5 27 9 0 10 -9 9 -35 -2z"/>
<path d="M560 2063 c0 -5 -26 -9 -58 -10 -31 -2 -58 -7 -60 -11 -1 -5 -14 -7
-27 -4 -14 2 -45 -6 -72 -19 -26 -13 -55 -25 -63 -27 -8 -1 -20 -4 -27 -5 -7
-2 -16 -6 -19 -10 -4 -4 -20 -7 -36 -7 -29 0 -58 -19 -58 -38 0 -12 274 62
430 116 8 3 21 6 28 8 28 5 24 14 -6 14 -18 0 -32 -3 -32 -7z"/>
<path d="M80 2049 c-8 -5 -27 -9 -41 -9 -18 0 -28 -6 -32 -21 -3 -13 -1 -19 6
-16 7 3 11 10 9 17 -1 7 5 9 15 6 22 -6 82 18 67 26 -5 4 -16 3 -24 -3z"/>
<path d="M228 2043 c7 -3 16 -2 19 1 4 3 -2 6 -13 5 -11 0 -14 -3 -6 -6z"/>
<path d="M3060 2030 c0 -5 7 -10 16 -10 8 0 12 5 9 10 -3 6 -10 10 -16 10 -5
0 -9 -4 -9 -10z"/>
<path d="M114 2004 c-16 -7 -32 -10 -36 -7 -5 2 -8 0 -8 -5 0 -6 -16 -13 -35
-16 -21 -4 -35 -13 -35 -21 0 -19 4 -19 78 6 34 11 60 25 57 29 -3 4 3 6 13 3
10 -2 34 2 53 10 l34 15 -46 -1 c-25 -1 -59 -7 -75 -13z"/>
<path d="M760 1990 c-23 -7 -23 -8 -3 -9 12 -1 25 4 28 9 3 6 5 10 3 9 -2 -1
-14 -5 -28 -9z"/>
<path d="M655 1938 c-67 -21 -95 -26 -101 -17 -3 5 -14 3 -25 -4 -11 -8 -35
-12 -54 -10 -22 2 -35 -1 -35 -8 0 -6 -9 -9 -20 -6 -11 3 -18 1 -14 -4 3 -5
-3 -10 -13 -10 -32 -2 -38 -4 -61 -17 -13 -8 -26 -11 -29 -8 -3 2 -16 0 -30
-5 -14 -5 -42 -12 -62 -15 -20 -3 -42 -13 -48 -22 -8 -9 -13 -11 -13 -4 0 7
-6 12 -14 12 -8 0 -13 -8 -12 -17 0 -12 -7 -19 -22 -21 -12 -2 -22 1 -22 7 0
6 5 11 12 11 6 0 8 3 5 7 -4 3 -16 -3 -27 -15 -12 -12 -32 -22 -45 -22 -20 0
-25 -5 -25 -26 0 -23 3 -26 28 -21 15 2 54 15 87 27 33 12 67 24 75 26 8 2 29
8 45 13 27 10 25 10 -18 6 -35 -3 -47 -1 -44 8 2 7 24 12 53 13 75 1 150 13
254 39 134 34 148 37 208 42 42 4 51 8 42 18 -9 11 -7 12 8 8 11 -3 19 1 19 9
0 16 -59 19 -102 6z"/>
<path d="M45 1917 c-27 -8 -41 -19 -43 -31 -3 -16 -1 -18 10 -9 14 12 18 13
44 13 9 0 12 5 8 12 -5 8 -2 9 9 5 11 -4 17 -1 17 8 0 8 -1 15 -2 14 -2 -1
-21 -6 -43 -12z"/>
<path d="M110 1920 c-13 -8 -12 -10 3 -10 9 0 17 5 17 10 0 12 -1 12 -20 0z"/>
<path d="M704 1848 c-3 -4 4 -8 15 -8 11 0 22 4 26 9 3 6 -4 9 -16 8 -11 -1
-23 -5 -25 -9z"/>
<path d="M24 1841 c3 -5 -1 -11 -9 -15 -17 -6 -21 -36 -5 -36 6 0 19 9 29 19
11 11 23 16 27 13 5 -4 2 1 -5 11 -13 17 -47 25 -37 8z"/>
<path d="M638 1840 c-1 -5 -25 -12 -52 -14 -27 -3 -52 -9 -55 -13 -3 -4 -26
-10 -51 -12 -54 -5 -85 -9 -85 -11 0 -1 -11 -3 -25 -6 -14 -2 -41 -7 -60 -11
-19 -3 -37 -7 -40 -7 -3 -1 -11 -5 -19 -10 -10 -7 -12 -5 -6 5 6 11 5 12 -6 2
-7 -7 -25 -13 -39 -13 -14 0 -30 -4 -36 -10 -5 -5 -25 -10 -44 -12 -19 -1 -37
-5 -40 -8 -3 -3 -21 -11 -40 -16 -25 -7 -36 -16 -38 -32 -3 -22 8 -25 48 -9 8
3 51 13 95 22 120 25 247 55 275 65 14 5 41 12 60 15 52 8 70 15 70 26 0 6 5
7 11 3 6 -3 15 0 20 7 6 10 9 11 9 2 0 -7 5 -13 11 -13 5 0 8 4 4 9 -3 5 -1
12 5 16 5 3 10 1 10 -4 0 -6 9 -11 21 -11 11 0 17 5 14 10 -4 6 -12 7 -18 3
-7 -4 -6 1 2 11 8 9 20 15 28 12 8 -3 11 -1 8 4 -8 13 -32 13 -37 0z"/>
<path d="M1298 1768 c5 -5 16 -8 23 -6 8 3 3 7 -10 11 -17 4 -21 3 -13 -5z"/>
<path d="M545 1679 c-11 -17 1 -21 15 -4 8 9 8 15 2 15 -6 0 -14 -5 -17 -11z"/>
<path d="M588 1673 c7 -3 16 -2 19 1 4 3 -2 6 -13 5 -11 0 -14 -3 -6 -6z"/>
<path d="M1396 1638 c3 -4 11 -5 19 -1 21 7 19 12 -4 10 -11 0 -18 -5 -15 -9z"/>
<path d="M1436 1635 c-9 -26 -7 -32 5 -12 6 10 9 21 6 23 -2 3 -7 -2 -11 -11z"/>
<path d="M1090 1580 c0 -5 5 -10 11 -10 5 0 7 5 4 10 -3 6 -8 10 -11 10 -2 0
-4 -4 -4 -10z"/>
<path d="M549 1545 c-1 -5 -1 -14 1 -20 1 -5 -4 -4 -11 3 -15 14 -43 16 -34 2
3 -5 2 -10 -4 -10 -5 0 -12 4 -15 9 -7 11 -54 2 -63 -12 -4 -7 0 -8 11 -4 10
4 23 4 29 0 16 -11 51 -10 58 1 4 4 16 3 28 -3 16 -9 21 -9 21 1 0 17 -19 46
-21 33z"/>
<path d="M435 1500 c-3 -5 -2 -10 4 -10 5 0 13 5 16 10 3 6 2 10 -4 10 -5 0
-13 -4 -16 -10z"/>
</g>
</svg>
