<?xml version="1.0" encoding="utf-8"?>
<!-- Generator: Adobe Illustrator 16.0.0, SVG Export Plug-In . SVG Version: 6.00 Build 0)  -->
<!DOCTYPE svg PUBLIC "-//W3C//DTD SVG 1.1//EN" "http://www.w3.org/Graphics/SVG/1.1/DTD/svg11.dtd">
<svg version="1.1" id="Layer_1" xmlns="http://www.w3.org/2000/svg" xmlns:xlink="http://www.w3.org/1999/xlink" x="0px" y="0px"
	 width="750px" height="520px" viewBox="0 0 750 520" enable-background="new 0 0 750 520" xml:space="preserve">
<g id="bg" transform="translate(-225 -140)">
	<g id="Rectangle_4754" transform="translate(225 140)">
		<path fill="#161625" d="M4,0h742c2.209,0,4,1.791,4,4v512c0,2.209-1.791,4-4,4H4c-2.209,0-4-1.791-4-4V4C0,1.791,1.791,0,4,0z"/>
		<path fill="#161625" d="M4,0.5h742c1.933,0,3.5,1.567,3.5,3.5v512c0,1.933-1.567,3.5-3.5,3.5H4c-1.933,0-3.5-1.567-3.5-3.5V4
			C0.5,2.067,2.067,0.5,4,0.5z"/>
	</g>
</g>
</svg>
