<?xml version="1.0" encoding="utf-8"?>
<!-- Generator: Adobe Illustrator 24.1.3, SVG Export Plug-In . SVG Version: 6.00 Build 0)  -->
<svg version="1.1" id="ic_connect" shape-rendering="geometricPrecision"
	 xmlns="http://www.w3.org/2000/svg" xmlns:xlink="http://www.w3.org/1999/xlink" x="0px" y="0px" viewBox="0 0 24 24"
	 style="enable-background:new 0 0 24 24;" xml:space="preserve">
<style type="text/css">
	.st0{fill:#FFFFFF;}
	.st1{fill:none;}
</style>
<g id="Group_8843">
	<g id="Group_8839">
		<circle id="Ellipse_602" class="st0" cx="12" cy="18" r="2"/>
	</g>
	<g id="Group_8840">
		<path id="Path_18896" class="st0" d="M20.7,9.4c-4.9-4.5-12.5-4.5-17.5,0L1.9,7.9c5.7-5.2,14.5-5.2,20.2,0L20.7,9.4z"/>
	</g>
	<g id="Group_8841">
		<path id="Path_18897" class="st0" d="M18,12.3c-3.4-3.1-8.7-3.1-12.1,0l-1.3-1.5C8.8,7,15.2,7,19.4,10.9L18,12.3z"/>
	</g>
	<g id="Group_8842">
		<path id="Path_18898" class="st0" d="M8.6,15.3l-1.3-1.5c2.7-2.4,6.7-2.4,9.4,0l-1.3,1.5C13.4,13.6,10.6,13.6,8.6,15.3z"/>
	</g>
</g>
<path id="Rectangle_4416" class="st1" d="M0,0h24v24H0V0z"/>
</svg>
