<?xml version="1.0" encoding="utf-8"?>
<!-- Generator: Adobe Illustrator 24.1.3, SVG Export Plug-In . SVG Version: 6.00 Build 0)  -->
<svg version="1.1" id="ic_light_theme" shape-rendering="geometricPrecision"
	 xmlns="http://www.w3.org/2000/svg" xmlns:xlink="http://www.w3.org/1999/xlink" x="0px" y="0px" viewBox="0 0 24 24"
	 style="enable-background:new 0 0 24 24;" xml:space="preserve">
<style type="text/css">
	.st0{fill:#FFFFFF;}
	.st1{fill:none;}
</style>
<g id="Group_8846">
	<path id="Path_18900" class="st0" d="M12,7c-2.8,0-5,2.2-5,5c0,2.8,2.2,5,5,5c2.8,0,5-2.2,5-5C17,9.2,14.8,7,12,7z M12,15
		c-1.7,0-3-1.3-3-3c0-1.7,1.3-3,3-3c1.7,0,3,1.3,3,3C15,13.7,13.7,15,12,15z"/>
	<path id="Rectangle_4418" class="st0" d="M11,2h2v4h-2V2z"/>
	<path id="Rectangle_4419" class="st0" d="M11,18h2v4h-2V18z"/>
	<path id="Rectangle_4420" class="st0" d="M2,11h4v2H2V11z"/>
	<path id="Rectangle_4421" class="st0" d="M18,11h4v2h-4V11z"/>
	<path id="Rectangle_4422" class="st0" d="M4.2,5.6l1.4-1.4l2.8,2.8L7.1,8.5L4.2,5.6z"/>
	<path id="Rectangle_4423" class="st0" d="M15.5,16.9l1.4-1.4l2.8,2.8l-1.4,1.4L15.5,16.9z"/>
	<path id="Rectangle_4424" class="st0" d="M4.2,18.4l2.8-2.8l1.4,1.4l-2.8,2.8L4.2,18.4z"/>
	<path id="Rectangle_4425" class="st0" d="M15.5,7.1l2.8-2.8l1.4,1.4L17,8.5L15.5,7.1z"/>
</g>
<path id="Rectangle_4426" class="st1" d="M0,0h24v24H0V0z"/>
</svg>
