<?xml version="1.0" encoding="utf-8"?>
<!-- Generator: Adobe Illustrator 16.0.0, SVG Export Plug-In . SVG Version: 6.00 Build 0)  -->
<!DOCTYPE svg PUBLIC "-//W3C//DTD SVG 1.1//EN" "http://www.w3.org/Graphics/SVG/1.1/DTD/svg11.dtd">
<svg version="1.1" id="ic_zfls" xmlns="http://www.w3.org/2000/svg" xmlns:xlink="http://www.w3.org/1999/xlink" x="0px" y="0px"
	 width="24px" height="24px" viewBox="0 0 24 24" enable-background="new 0 0 24 24" xml:space="preserve">
<g id="Group_8933">
	<g id="Group_8932">
		<path id="Path_18926" fill="#007BFE" d="M12,2C6.477,2,2,6.477,2,12c0,5.523,4.477,10,10,10c5.523,0,10-4.477,10-10
			C22,6.477,17.523,2,12,2z M12,21.25c-5.108,0-9.25-4.142-9.25-9.25S6.892,2.75,12,2.75s9.25,4.142,9.25,9.25
			S17.108,21.25,12,21.25L12,21.25z"/>
		<path id="Path_18927" fill="#007BFE" d="M12,3.5c-4.694,0-8.5,3.806-8.5,8.5s3.806,8.5,8.5,8.5s8.5-3.806,8.5-8.5
			S16.694,3.5,12,3.5z M7.59,12.464l4.737-5.618H7.739V6h5.922v0.811L9.015,12.3l4.711,0.019v0.849H7.59V12.464z M16.466,14.988
			c-0.044,0.037-0.092,0.07-0.142,0.1c-0.014,0.01-0.029,0.02-0.041,0.029s-0.045,0.027-0.067,0.041
			c-0.062,0.037-0.124,0.07-0.19,0.1c-0.027,0.016-0.055,0.029-0.084,0.041c-0.03,0.016-0.061,0.029-0.092,0.042
			c-0.041,0.019-0.082,0.031-0.125,0.048c-0.33,0.113-0.677,0.17-1.025,0.168h-2.172V19h-0.861v-4.218h2.923
			c0.61,0.037,1.2-0.227,1.58-0.706c0.054-0.073,0.102-0.15,0.142-0.232c0.057-0.112,0.101-0.229,0.133-0.351
			c0.056-0.202,0.082-0.411,0.08-0.621c0-0.106-0.006-0.214-0.019-0.32c-0.021-0.161-0.06-0.32-0.118-0.472
			c-0.01-0.029-0.021-0.058-0.035-0.085c-0.094-0.217-0.236-0.409-0.418-0.561c-0.066-0.057-0.137-0.107-0.211-0.152
			c-0.025-0.016-0.051-0.031-0.076-0.044c-0.054-0.029-0.108-0.054-0.164-0.076L15.4,11.13c-0.09-0.032-0.182-0.058-0.275-0.076
			l-0.1-0.019c-0.102-0.017-0.205-0.026-0.308-0.028h-0.106l-2.98,0.012l0.7-0.788h2.382c0.349-0.002,0.695,0.053,1.026,0.164
			c0.04,0.013,0.081,0.029,0.122,0.045c0.061,0.025,0.121,0.05,0.179,0.079c0.076,0.038,0.147,0.079,0.221,0.123
			c0.035,0.023,0.07,0.045,0.101,0.07c0.694,0.498,1.09,1.313,1.051,2.166C17.443,13.69,17.094,14.471,16.466,14.988z"/>
	</g>
</g>
<path id="Rectangle_4542" fill="none" d="M0,0h24v24H0V0z"/>
</svg>
