<?xml version="1.0" encoding="utf-8"?>
<!-- Generator: Adobe Illustrator 16.0.0, SVG Export Plug-In . SVG Version: 6.00 Build 0)  -->
<!DOCTYPE svg PUBLIC "-//W3C//DTD SVG 1.1//EN" "http://www.w3.org/Graphics/SVG/1.1/DTD/svg11.dtd">
<svg version="1.1" id="Layer_1" xmlns="http://www.w3.org/2000/svg" xmlns:xlink="http://www.w3.org/1999/xlink" x="0px" y="0px"
	 width="18px" height="17px" viewBox="0 0 18 17" enable-background="new 0 0 18 17" xml:space="preserve">
<title>ic-close-white</title>
<desc>Created with Sketch.</desc>
<g id="Page-1">
	<g id="ic-close-white" transform="translate(-1.000000, -2.000000)">
		<g id="ic_close">
			<polygon id="Rectangle_3745" fill="none" points="0,0 20,0 20,20 0,20 			"/>
			<path id="Path_18563" opacity="0.6955" fill="#007BFE" enable-background="new    " d="M17.8,16.8L11.1,10l6.7-6.8l0.5-0.5
				l-0.5-0.5c-0.306-0.3-0.794-0.3-1.1,0L10,8.9L3.3,2.2c-0.305-0.3-0.794-0.3-1.1,0L1.7,2.7l0.5,0.5L8.9,10l-6.7,6.8
				c-0.3,0.306-0.3,0.795,0,1.101l0.5,0.5l0.5-0.5L9.9,11.1l6.7,6.801l0.5,0.5l0.5-0.5C18.1,17.5,18.1,17,17.8,16.8z"/>
		</g>
	</g>
</g>
</svg>
