<?xml version="1.0" encoding="utf-8"?>
<!-- Generator: Adobe Illustrator 24.1.3, SVG Export Plug-In . SVG Version: 6.00 Build 0)  -->
<svg version="1.1" id="ic-transaction-staked" xmlns="http://www.w3.org/2000/svg" xmlns:xlink="http://www.w3.org/1999/xlink"
	 x="0px" y="0px" viewBox="0 0 24 24" style="enable-background:new 0 0 24 24;" xml:space="preserve">
<style type="text/css">
	.st0{fill:#007BFE;}
	.st1{fill:none;}
	.st2{fill:#FFFFFF;}
</style>
<path id="Path_18914" class="st0" d="M42.1,6V4.9c-0.1-1.7-1.5-3-3.2-2.9c-1.4,0.1-2.6,1.1-2.8,2.6l0,0l0,0
	c-0.2-1.6-1.8-2.8-3.4-2.5c-1.5,0.2-2.6,1.5-2.6,3v1h-4v6h2v10h16V12h2V6H42.1z M38.1,5.4V5c0-0.6,0.4-1,1-1s1,0.4,1,1v1h-2.6
	L38.1,5.4z M37.1,8v8h-2V8H37.1z M32.1,5c0-0.6,0.4-1,1-1s1,0.4,1,1v0.4L34.7,6h-2.6C32.1,6,32.1,5,32.1,5z M28.1,8h5v2h-5
	C28.1,10,28.1,8,28.1,8z M42.1,20h-12v-8h3v6h6v-6h3V20z M44.1,10h-5V8h5V10z"/>
<path id="Rectangle_4527" class="st1" d="M0,0h24v24H0V0z"/>
<path class="st2" d="M21.4,16.3l-2.8-1.5l2.5-0.6c0.5-0.1,0.7-0.6,0.6-1s-0.6-0.7-1-0.6l-4.2,1.1l-2.7-1.5l2.7-1.5l4.2,1.1
	c0.1,0,0.1,0,0.2,0c0.4,0,0.7-0.2,0.8-0.6c0.1-0.4-0.1-0.9-0.6-1l-2.5-0.6l2.8-1.5c0.4-0.2,0.5-0.7,0.3-1.1s-0.8-0.5-1.2-0.3L17.8,8
	l0.7-2.4c0.1-0.4-0.1-0.9-0.6-1s-0.9,0.1-1,0.6l-1.1,4l-2.7,1.5v-3L16,4.8c0.3-0.3,0.3-0.8,0-1.2c-0.3-0.3-0.9-0.3-1.2,0L13,5.4V2.3
	c0-0.5-0.4-0.8-0.9-0.8s-0.9,0.4-0.9,0.8v3.1L9.4,3.6C9,3.3,8.5,3.3,8.2,3.6s-0.3,0.8,0,1.2l3.1,2.9v3L8.5,9.2l-1.1-4
	c-0.1-0.4-0.6-0.7-1-0.6c-0.5,0.1-0.7,0.6-0.6,1L6.4,8L3.6,6.5C3.2,6.3,2.7,6.4,2.4,6.8C2.2,7.2,2.3,7.7,2.7,7.9l2.8,1.5L3,10.1
	c-0.5,0.1-0.7,0.6-0.6,1c0.1,0.4,0.4,0.6,0.8,0.6c0.1,0,0.1,0,0.2,0l4.2-1.1l2.7,1.5l-2.7,1.5l-4.2-1.1c-0.5-0.1-0.9,0.1-1,0.6
	c-0.1,0.4,0.1,0.9,0.6,1l2.5,0.6l-2.8,1.5c-0.4,0.2-0.5,0.7-0.3,1.1c0.2,0.3,0.4,0.4,0.7,0.4c0.1,0,0.3,0,0.4-0.1l2.8-1.5l-0.7,2.4
	c-0.1,0.4,0.1,0.9,0.6,1c0.1,0,0.1,0,0.2,0c0.4,0,0.7-0.2,0.8-0.6l1.1-4l2.7-1.5v3l-3.1,2.9c-0.3,0.3-0.3,0.8,0,1.2
	c0.3,0.3,0.9,0.3,1.2,0l1.8-1.8v3.1c0,0.5,0.4,0.8,0.9,0.8s0.9-0.4,0.9-0.8v-3.1l1.8,1.8c0.2,0.2,0.4,0.2,0.6,0.2
	c0.2,0,0.4-0.1,0.6-0.2c0.3-0.3,0.3-0.8,0-1.2l-3.1-2.9v-3l2.7,1.5l1.1,4c0.1,0.4,0.4,0.6,0.8,0.6c0.1,0,0.1,0,0.2,0
	c0.5-0.1,0.7-0.6,0.6-1l-0.7-2.4l2.8,1.5c0.1,0.1,0.3,0.1,0.4,0.1c0.3,0,0.6-0.1,0.7-0.4C22,17,21.8,16.5,21.4,16.3z"/>
</svg>
