<?xml version="1.0" encoding="utf-8"?>
<!-- Generator: Adobe Illustrator 24.1.3, SVG Export Plug-In . SVG Version: 6.00 Build 0)  -->
<svg version="1.1" id="ic-transaction-staked" xmlns="http://www.w3.org/2000/svg" xmlns:xlink="http://www.w3.org/1999/xlink"
	 x="0px" y="0px" viewBox="0 0 1280 720" style="enable-background:new 0 0 1280 720;" xml:space="preserve">
<style type="text/css">
	.st0{fill:none;}
	.st1{fill:#FFFFFF;}
</style>
<path id="Rectangle_4527" class="st0" d="M280,0h720v720H280V0z"/>
<g>
	<g>
		<path class="st1" d="M775,360c-21-18-48-33-75-48c-12-6-48-36-36-78l-27-3c36-57,87-117,147-171c-48,15-87,39-120,84
			c18-39,48-75,81-114c-45,30-84,69-108,117l18-69c-27,45-45,93-51,141l-33-24l-6,6c30,57,15,87,0,96c-30,21-78,48-99,72
			c-45,45-57,87-51,144c3,72,57,132,126,156c30,9,60,12,90,12c51,0,102-15,141-45c39-33,63-84,63-138C835,447,814,396,775,360z
			 M577,210L577,210L577,210L577,210z M688,621c-9,21-27,42-39,51c-6,0-15,0-21,0c-18,0-39-3-57-6c-21-6-36-15-48-30l-3-3
			c-21-24-45-63-57-99c-3-12-6-24,0-39c18-60,54-81,90-108c9-6,18-9,27-15c15-12,24-45,33-72c-3,21-9,63-30,78c-9,6-18,12-27,18
			c-36,24-72,45-87,102c-3,12,0,24,3,36c9,36,33,72,54,93l3,3c12,15,18,21,48,30c-6-3-12-6-18-12c-33-24-51-54-54-96
			c-3-33,18-69,60-90c27-15,36-36,45-63c-6,30-12,51-42,66c-33,21-60,60-57,87c3,33,27,69,51,93c12,12,33,18,54,21l0,0
			c-6-3-15-9-21-18c-6-6-9-18-12-27c-3-12-9-21-9-30c0-21,3-45,18-63c12-15,18-18,24-33c0-51,0-96,0-135c0-42,0-75,0-96s0-33,0-33h3
			c0,6,0,21,0,45s0,57,0,99s0,90,0,141c0,36,0,72,0,111c0,12,0,24,0,33l0,0c9-15,12-45,15-63c0-15,3-30,0-48c-3-21-9-45-9-60
			c3,15,12,39,15,60c3,18,3,33,3,48s-3,27-3,39c-3,9-9,21-18,30l0,0l0,0l0,0l0,0l0,0l0,0c18-12,30-33,33-57c6-30,6-57,6-72
			c0-12-6-33-12-51c-3-15-18-30-21-39c-6-18-3-30-3-57c3,24,3,42,9,51s12,21,18,36c9,24,15,51,15,63c0,21-3,54-9,78c-3,9-6,15-9,24
			c6-12,12-27,15-39c9-45,18-90,12-117c0-6-3-27-12-51c-12-33-30-60-33-66c-6-18-9-66-9-90c0,30,6,75,12,84c3,6,21,36,36,69
			c9,21,12,42,12,48c6,60,0,84-15,138c-3,12-12,24-18,36c15-15,27-36,30-51c15-66,21-153,0-219c-12-33-39-63-45-84c-6-18-3-27-3-54
			c0,30,9,51,12,63c3,6,27,36,39,69c9,21,18,75,18,78C709,516,706,573,688,621z"/>
		<path class="st1" d="M616,495c-3,18-6,21-18,36c-15,24-18,45-15,60c0,9,6,18,9,24c3,9,9,18,15,27c3,6,6,9,12,12c0-51,0-105,0-153
			C616,501,616,498,616,495z"/>
	</g>
</g>
</svg>
