<?xml version="1.0" encoding="utf-8"?>
<!-- Generator: Adobe Illustrator 24.1.3, SVG Export Plug-In . SVG Version: 6.00 Build 0)  -->
<svg version="1.1" id="ic_staking_on" shape-rendering="geometricPrecision"
	 xmlns="http://www.w3.org/2000/svg" xmlns:xlink="http://www.w3.org/1999/xlink" x="0px" y="0px" viewBox="0 0 24 24"
	 style="enable-background:new 0 0 24 24;" xml:space="preserve">
<style type="text/css">
	.st0{fill:#FFFFFF;}
	.st1{fill:none;}
</style>
<path id="Path_18914" class="st0" d="M18,6V4.9c-0.1-1.7-1.5-2.9-3.1-2.9c-1.4,0.1-2.6,1.1-2.8,2.6l0,0l0,0C11.7,2.9,10.2,1.8,8.6,2
	C7.1,2.2,6,3.5,6,5v1H2v6h2v10h16V12h2V6H18z M14,5.4V5c0-0.6,0.4-1,1-1s1,0.4,1,1v1h-2.6L14,5.4z M13,8v8h-2V8H13z M8,5
	c0-0.6,0.4-1,1-1s1,0.4,1,1v0.4L10.6,6H8V5z M4,8h5v2H4V8z M18,20H6v-8h3v6h6v-6h3V20z M20,10h-5V8h5V10z"/>
<path id="Rectangle_4527" class="st1" d="M0,0h24v24H0V0z"/>
</svg>
