<?xml version="1.0" encoding="utf-8"?>
<!-- Generator: Adobe Illustrator 16.0.0, SVG Export Plug-In . SVG Version: 6.00 Build 0)  -->
<!DOCTYPE svg PUBLIC "-//W3C//DTD SVG 1.1//EN" "http://www.w3.org/Graphics/SVG/1.1/DTD/svg11.dtd">
<svg version="1.1" id="ic_connect" xmlns="http://www.w3.org/2000/svg" xmlns:xlink="http://www.w3.org/1999/xlink" x="0px" y="0px"
	 width="24px" height="24px" viewBox="0 0 24 24" enable-background="new 0 0 24 24" xml:space="preserve">
<g id="Group_8843">
	<g id="Group_8839">
		<circle id="Ellipse_602" fill="#007BFE" cx="12" cy="18" r="2"/>
	</g>
	<g id="Group_8840">
		<path id="Path_18896" fill="#007BFE" d="M20.732,9.393c-4.942-4.524-12.522-4.524-17.465,0l-1.346-1.48
			c5.707-5.217,14.452-5.217,20.158,0L20.732,9.393z"/>
	</g>
	<g id="Group_8841">
		<path id="Path_18897" fill="#007BFE" d="M18.046,12.349c-3.422-3.132-8.67-3.132-12.092,0l-1.346-1.48
			c4.186-3.826,10.599-3.826,14.785,0L18.046,12.349z"/>
	</g>
	<g id="Group_8842">
		<path id="Path_18898" fill="#007BFE" d="M8.642,15.305L7.3,13.826c2.664-2.435,6.745-2.435,9.408,0l-1.347,1.479
			C13.438,13.621,10.565,13.621,8.642,15.305z"/>
	</g>
</g>
<path id="Rectangle_4416" fill="none" d="M0,0h24v24H0V0z"/>
</svg>
