<?xml version="1.0" encoding="utf-8"?>
<!-- Generator: Adobe Illustrator 24.1.3, SVG Export Plug-In . SVG Version: 6.00 Build 0)  -->
<svg version="1.1" id="Layer_1" xmlns="http://www.w3.org/2000/svg" xmlns:xlink="http://www.w3.org/1999/xlink" x="0px" y="0px"
	 viewBox="0 0 24 24" style="enable-background:new 0 0 24 24;" xml:space="preserve">
<style type="text/css">
	.st0{fill:#FFFFFF;}
</style>
<desc>Created with Sketch.</desc>
<g id="Artboard">
	<path id="_x3F_" class="st0" d="M11.5,16.8c0-0.3,0-0.5,0-0.6c0-0.8,0.1-1.5,0.4-2.1c0.2-0.5,0.4-0.9,0.8-1.4
		c0.3-0.3,0.8-0.8,1.5-1.5s1.2-1.2,1.4-1.5S16,8.8,16,8.4c0-0.8-0.3-1.5-1-2.2s-1.4-0.9-2.4-0.9c-0.9,0-1.6,0.3-2.2,0.8
		s-1,1.4-1.2,2.6L7.1,8.5c0.2-1.6,0.8-2.8,1.7-3.7s2.2-1.3,3.8-1.3c1.7,0,3,0.5,4,1.4s1.5,2,1.5,3.3c0,0.8-0.2,1.4-0.5,2.1
		s-1,1.4-2.1,2.3c-0.7,0.6-1.1,1.1-1.3,1.3s-0.4,0.6-0.5,1s-0.2,1-0.2,1.8L11.5,16.8L11.5,16.8z M11.4,21v-2.4h2.4V21H11.4z"/>
</g>
</svg>
