<?xml version="1.0" encoding="utf-8"?>
<!-- Generator: Adobe Illustrator 16.0.0, SVG Export Plug-In . SVG Version: 6.00 Build 0)  -->
<!DOCTYPE svg PUBLIC "-//W3C//DTD SVG 1.1//EN" "http://www.w3.org/Graphics/SVG/1.1/DTD/svg11.dtd">
<svg version="1.1" id="Layer_1" xmlns="http://www.w3.org/2000/svg" xmlns:xlink="http://www.w3.org/1999/xlink" x="0px" y="0px"
	 width="24px" height="24px" viewBox="0 0 24 24" enable-background="new 0 0 24 24" xml:space="preserve">
<title>Artboard</title>
<desc>Created with Sketch.</desc>
<g id="Artboard">
	<path id="_x3F_" fill="#007BFE" d="M11.531,16.77c-0.008-0.281-0.012-0.492-0.012-0.633c0-0.828,0.117-1.543,0.352-2.145
		c0.172-0.453,0.449-0.91,0.832-1.371c0.281-0.336,0.787-0.826,1.518-1.471s1.205-1.158,1.424-1.541s0.328-0.801,0.328-1.254
		c0-0.82-0.32-1.541-0.961-2.162s-1.426-0.932-2.355-0.932c-0.898,0-1.648,0.281-2.25,0.844S9.41,7.547,9.223,8.742L7.055,8.484
		c0.195-1.602,0.775-2.828,1.74-3.68s2.24-1.277,3.826-1.277c1.68,0,3.02,0.457,4.02,1.371s1.5,2.02,1.5,3.316
		c0,0.75-0.176,1.441-0.527,2.074s-1.039,1.402-2.063,2.309c-0.688,0.609-1.137,1.059-1.348,1.348s-0.367,0.621-0.469,0.996
		s-0.16,0.984-0.176,1.828H11.531z M11.402,21v-2.402h2.402V21H11.402z"/>
</g>
</svg>
