<?xml version="1.0" encoding="utf-8"?>
<!-- Generator: Adobe Illustrator 24.1.3, SVG Export Plug-In . SVG Version: 6.00 Build 0)  -->
<svg version="1.1" id="Layer_1" shape-rendering="geometricPrecision"
	 xmlns="http://www.w3.org/2000/svg" xmlns:xlink="http://www.w3.org/1999/xlink" x="0px" y="0px" viewBox="0 0 24 24"
	 style="enable-background:new 0 0 24 24;" xml:space="preserve">
<style type="text/css">
	.st0{fill:#FFFFFF;}
</style>
<desc>Created with Sketch.</desc>
<g id="Top-Bar-Sync">
	<g id="Group" transform="translate(3.000000, 2.000000)">
		<path id="Path_18901" class="st0" d="M9,17c-2.3,0-4.4-1.1-5.7-3H6v-2H0v6h2v-2.4c2.4,3,6.4,4.1,10,2.9c3.6-1.3,6-4.7,6-8.5h-2
			C16,13.9,12.9,17,9,17z"/>
		<path id="Path_18902" class="st0" d="M16,2v2.4c-2.4-3-6.4-4.1-10-2.9C2.4,2.8,0,6.2,0,10h2c0-3.1,2-5.8,4.9-6.7
			C9.8,2.4,13,3.5,14.7,6H12v2h6V2H16z"/>
	</g>
</g>
</svg>
