<?xml version="1.0" encoding="utf-8"?>
<!-- Generator: Adobe Illustrator 16.0.0, SVG Export Plug-In . SVG Version: 6.00 Build 0)  -->
<!DOCTYPE svg PUBLIC "-//W3C//DTD SVG 1.1//EN" "http://www.w3.org/Graphics/SVG/1.1/DTD/svg11.dtd">
<svg version="1.1" id="Layer_1" xmlns="http://www.w3.org/2000/svg" xmlns:xlink="http://www.w3.org/1999/xlink" x="0px" y="0px"
	 width="24px" height="24px" viewBox="0 0 24 24" enable-background="new 0 0 24 24" xml:space="preserve">
<g id="ic-expand" opacity="0.6">
	<g id="Group_8821">
		<path id="Path_18875" fill="#007BFE" d="M4,5.54l5.3,5.176l1.4-1.431L5.285,4H8V2H2v6h2V5.54z"/>
		<path id="Path_18876" fill="#007BFE" d="M20,18.586l-5.293-5.293l-1.414,1.414L18.586,20H16v2h6v-6h-2V18.586z"/>
		<path id="Path_18877" fill="#007BFE" d="M9.284,13.3L4,18.715V16H2v6h6v-2H5.541l5.175-5.3L9.284,13.3z"/>
		<path id="Path_18878" fill="#007BFE" d="M16,2v2h2.586l-5.293,5.293l1.414,1.414L20,5.414V8h2V2H16z"/>
	</g>
	<path id="Rectangle_4404" fill="none" d="M0,0h24v24H0V0z"/>
</g>
</svg>
