<?xml version="1.0" encoding="utf-8"?>
<!-- Generator: Adobe Illustrator 16.0.0, SVG Export Plug-In . SVG Version: 6.00 Build 0)  -->
<!DOCTYPE svg PUBLIC "-//W3C//DTD SVG 1.1//EN" "http://www.w3.org/Graphics/SVG/1.1/DTD/svg11.dtd">
<svg version="1.1" id="ic_mint" xmlns="http://www.w3.org/2000/svg" xmlns:xlink="http://www.w3.org/1999/xlink" x="0px" y="0px"
	 width="24px" height="24px" viewBox="0 0 24 24" enable-background="new 0 0 24 24" xml:space="preserve">
<g id="Group_9004">
	<path id="Path_18964" d="M6,5h12v2.586l-0.793-0.793l-1.414,1.414L19,11.414l3.207-3.207l-1.414-1.414L20,7.586V3H4v7h2V5z"/>
	<path id="Path_18965" d="M12,8c-2.209,0-4,1.791-4,4s1.791,4,4,4s4-1.791,4-4S14.209,8,12,8z M12,14c-1.104,0-2-0.896-2-2
		s0.896-2,2-2s2,0.896,2,2S13.104,14,12,14z"/>
	<path id="Path_18966" d="M18,19H6v-2.586l0.793,0.793l1.414-1.414L5,12.586l-3.207,3.207l1.414,1.414L4,16.414V21h16v-7h-2V19z"/>
</g>
<path id="Rectangle_4647" fill="#161625" d="M0,0h24v24H0V0z"/>
</svg>
