<?xml version="1.0" encoding="utf-8"?>
<!-- Generator: Adobe Illustrator 16.0.0, SVG Export Plug-In . SVG Version: 6.00 Build 0)  -->
<!DOCTYPE svg PUBLIC "-//W3C//DTD SVG 1.1//EN" "http://www.w3.org/Graphics/SVG/1.1/DTD/svg11.dtd">
<svg version="1.1" id="Layer_1" xmlns="http://www.w3.org/2000/svg" xmlns:xlink="http://www.w3.org/1999/xlink" x="0px" y="0px"
	 width="24px" height="40px" viewBox="0 0 24 40" enable-background="new 0 0 24 40" xml:space="preserve">
<title>Artboard</title>
<desc>Created with Sketch.</desc>
<g id="Artboard">
	<g id="ic_settings-active" transform="translate(1.000000, 13.000000)">
		<g id="Group_8818">
			<g id="Group_8816">
				<path id="Path_18871" fill="#007BFE" d="M13.9,22H8.1l-0.313-3.136L7.72,18.837l-2.439,2l-4.114-4.112l2-2.439l-0.028-0.066
					L0,13.9V8.1l3.135-0.313L3.163,7.72l-2-2.439l4.113-4.112l2.439,2l0.067-0.027L8.1,0h5.8l0.313,3.136l0.066,0.027l2.439-2
					l4.109,4.107l-2,2.44l0.027,0.065L22,8.1V13.9l-3.135,0.313l-0.028,0.066l2,2.439l-4.108,4.107l-2.439-2l-0.066,0.026L13.9,22z
					 M9.9,20h2.2l0.262-2.609l0.625-0.201c0.342-0.109,0.674-0.248,0.992-0.414l0.584-0.299l2.033,1.664l1.547-1.55l-1.664-2.034
					l0.301-0.584c0.166-0.318,0.304-0.649,0.414-0.99l0.199-0.625L20,12.1V9.9l-2.609-0.262l-0.201-0.625
					c-0.109-0.341-0.248-0.672-0.414-0.99L16.477,7.44l1.662-2.03L16.59,3.861l-2.033,1.664l-0.582-0.3
					c-0.318-0.166-0.65-0.304-0.992-0.414l-0.627-0.2L12.1,2H9.9L9.639,4.61l-0.626,0.2C8.671,4.92,8.339,5.059,8.021,5.224
					l-0.583,0.3L5.41,3.861L3.862,5.41l1.664,2.035l-0.3,0.584C5.061,8.347,4.922,8.678,4.812,9.02l-0.2,0.625L2,9.9V12.1
					l2.61,0.262l0.2,0.625c0.11,0.341,0.249,0.672,0.414,0.99l0.3,0.584L3.862,16.59l1.548,1.549l2.033-1.664l0.583,0.301
					c0.318,0.165,0.65,0.304,0.992,0.414l0.626,0.199L9.9,20z"/>
			</g>
			<g id="Group_8817" transform="translate(7.000000, 7.000000)">
				<path id="Path_18872" fill="#007BFE" d="M4,8C1.791,8,0,6.209,0,4s1.791-4,4-4s4,1.791,4,4c0,1.061-0.422,2.078-1.172,2.828
					S5.061,8,4,8z M4,2C2.896,2,2,2.896,2,4s0.896,2,2,2s2-0.896,2-2S5.104,2,4,2z"/>
			</g>
		</g>
	</g>
</g>
</svg>
