<?xml version="1.0" encoding="utf-8"?>
<!-- Generator: Adobe Illustrator 16.0.0, SVG Export Plug-In . SVG Version: 6.00 Build 0)  -->
<!DOCTYPE svg PUBLIC "-//W3C//DTD SVG 1.1//EN" "http://www.w3.org/Graphics/SVG/1.1/DTD/svg11.dtd">
<svg version="1.1" id="Layer_1" xmlns="http://www.w3.org/2000/svg" xmlns:xlink="http://www.w3.org/1999/xlink" x="0px" y="0px"
	 width="24px" height="31px" viewBox="0 0 24 31" enable-background="new 0 0 24 31" xml:space="preserve">
<title>Cold Staking</title>
<desc>Created with Sketch.</desc>
<path fill="#007BFE" d="M21.7,22.6l-3-1.6l2.7-0.5c0.5,0,0.8-0.5,0.5-1.1c0-0.5-0.5-0.801-1.101-0.5L16.5,20l-3-1.6l3-1.601
	l4.3,1.101h0.3c0.301,0,0.801-0.301,0.801-0.5c0-0.5-0.301-0.801-0.5-1.101l-2.7-0.5l3-1.6c0.5-0.3,0.5-0.8,0.3-1.1
	c-0.3-0.3-0.8-0.5-1.1-0.3l-3,1.6l0.8-2.4c0-0.5-0.3-0.8-0.5-1.1c-0.5,0-1.101,0.3-1.101,0.5L16,15.3L13,16.9v-3.3l3.3-3
	c0.3-0.3,0.3-0.8,0-1.1s-0.8-0.3-1.399,0l-1.801,2V8.3c0-0.5-0.3-0.8-0.8-0.8s-0.8,0.3-0.8,0.8v3.2L9.3,9.4C9,9.1,8.5,9.1,7.9,9.4
	c-0.3,0.3-0.3,0.8,0,1.1l3.3,3v3.3l-3-1.6l-1.1-4.1c0-0.5-0.5-0.8-1.1-0.5c-0.5,0-0.8,0.5-0.5,1.1l0.8,2.4l-3-1.6
	c-0.5-0.3-1.1,0-1.1,0.3c-0.3,0.3,0,0.8,0.3,1.1l3,1.6L2.8,16c-0.5,0-0.8,0.5-0.5,1.1C2.2,17.2,2.8,17.5,3,17.5h0.3l4.3-1.1l3,1.6
	l-3,1.6l-4.3-1.1c-0.5,0-1.1,0.3-1.1,0.5c0,0.5,0.3,0.8,0.5,1.1l2.7,0.5l-3,1.601c-0.5,0.3-0.5,0.8-0.3,1.1c0.3,0.3,0.5,0.5,0.8,0.5
	c0.3,0,0.3,0,0.5,0l2.7-1.6l-0.8,2.7c0,0.5,0.3,0.8,0.5,1.1h0.3c0.3,0,0.8-0.3,0.8-0.5L8,21.4l3-1.601v3.3l-3.3,3
	C7.4,26.4,7.4,26.9,7.7,27.2c0.3,0.3,0.8,0.3,1.4,0l1.9-1.9v3.3c0,0.5,0.3,0.801,0.8,0.801s0.8-0.301,0.8-0.801v-3.3l1.9,1.9
	c0.5,0.3,0.5,0.3,0.7,0.3c0.3,0,0.5,0,0.5-0.3c0.3-0.3,0.3-0.8,0-1.101l-3.3-3v-3.5l3,1.601l1.1,4.1c0,0.3,0.5,0.5,0.8,0.5h0.3
	c0.5,0,0.801-0.5,0.5-1.1v-2.4l3,1.601c0.301,0,0.301,0,0.5,0c0.301,0,0.5-0.301,0.801-0.5C22.6,23.5,22.3,22.9,21.7,22.6z"/>
</svg>
