<?xml version="1.0" encoding="utf-8"?>
<!-- Generator: Adobe Illustrator 16.0.0, SVG Export Plug-In . SVG Version: 6.00 Build 0)  -->
<!DOCTYPE svg PUBLIC "-//W3C//DTD SVG 1.1//EN" "http://www.w3.org/Graphics/SVG/1.1/DTD/svg11.dtd">
<svg version="1.1" id="Layer_1" xmlns="http://www.w3.org/2000/svg" xmlns:xlink="http://www.w3.org/1999/xlink" x="0px" y="0px"
	 width="24px" height="40px" viewBox="0 0 24 40" enable-background="new 0 0 24 40" xml:space="preserve">
<title>Privacy</title>
<desc>Created with Sketch.</desc>
<g id="Privacy">
	<g id="Group" transform="translate(1.000000, 13.000000)">
		<path id="Path_18869" fill="#007BFE" d="M20.025,10.116L17.771,0.009L11,1.156L4.229,0L1.975,10.116H0v2h22v-2H20.025z
			 M5.771,2.294L11,3.183l5.229-0.9l1.748,7.833H4.024L5.771,2.294z"/>
		<path id="Path_18870" fill="#007BFE" d="M12,16.116h-2v-2H1v3.737c0.081,2.419,2.08,4.33,4.5,4.301
			c2.27-0.086,4.152-1.788,4.464-4.038h2.072c0.313,2.249,2.194,3.95,4.464,4.036c2.42,0.029,4.419-1.882,4.5-4.301v-3.735h-9
			V16.116z M8,17.854c-0.091,1.314-1.183,2.333-2.5,2.333S3.091,19.168,3,17.854v-1.737h5V17.854z M14,16.116h5v1.737
			c-0.091,1.314-1.184,2.333-2.5,2.333s-2.409-1.019-2.5-2.333V16.116z"/>
	</g>
</g>
</svg>
