<?xml version="1.0" encoding="utf-8"?>
<!-- Generator: Adobe Illustrator 16.0.0, SVG Export Plug-In . SVG Version: 6.00 Build 0)  -->
<!DOCTYPE svg PUBLIC "-//W3C//DTD SVG 1.1//EN" "http://www.w3.org/Graphics/SVG/1.1/DTD/svg11.dtd">
<svg version="1.1" id="Layer_1" xmlns="http://www.w3.org/2000/svg" xmlns:xlink="http://www.w3.org/1999/xlink" x="0px" y="0px"
	 width="24px" height="40px" viewBox="0 0 24 40" enable-background="new 0 0 24 40" xml:space="preserve">
<title>Settings</title>
<desc>Created with Sketch.</desc>
<g id="Settings">
	<path id="Path_18871" fill="#007BFE" d="M14.9,35H9.1l-0.313-3.136L8.72,31.837l-2.439,2l-4.114-4.112l2-2.439l-0.028-0.066L1,26.9
		V21.1l3.135-0.313l0.028-0.066l-2-2.439l4.113-4.112l2.439,2l0.067-0.027L9.1,13h5.8l0.313,3.136l0.066,0.027l2.439-2l4.109,4.107
		l-2,2.44l0.027,0.065L23,21.1V26.9l-3.135,0.313l-0.028,0.066l2,2.439l-4.108,4.107l-2.439-2l-0.066,0.026L14.9,35z M10.9,33h2.2
		l0.262-2.609l0.625-0.201c0.342-0.109,0.674-0.248,0.992-0.414l0.584-0.299l2.033,1.664l1.547-1.55l-1.664-2.034l0.301-0.584
		c0.166-0.318,0.304-0.649,0.414-0.99l0.199-0.625L21,25.1V22.9l-2.609-0.262l-0.201-0.625c-0.109-0.341-0.248-0.672-0.414-0.99
		l-0.299-0.583l1.662-2.03l-1.549-1.549l-2.033,1.664l-0.582-0.3c-0.318-0.166-0.65-0.304-0.992-0.414l-0.627-0.2L13.1,15h-2.2
		l-0.261,2.61l-0.626,0.2c-0.342,0.11-0.674,0.249-0.992,0.414l-0.583,0.3L6.41,16.861L4.862,18.41l1.664,2.035l-0.3,0.584
		c-0.166,0.317-0.304,0.648-0.414,0.99l-0.2,0.625L3,22.9V25.1l2.61,0.262l0.2,0.625c0.11,0.341,0.249,0.672,0.414,0.99l0.3,0.584
		L4.862,29.59l1.548,1.549l2.033-1.664l0.583,0.301c0.318,0.165,0.65,0.304,0.992,0.414l0.626,0.199L10.9,33z"/>
	<path id="Path_18872" fill="#007BFE" d="M12,28c-2.209,0-4-1.791-4-4s1.791-4,4-4s4,1.791,4,4c0,1.061-0.422,2.078-1.172,2.828
		S13.061,28,12,28z M12,22c-1.104,0-2,0.896-2,2s0.896,2,2,2s2-0.896,2-2S13.104,22,12,22z"/>
</g>
</svg>
