<?xml version="1.0" encoding="utf-8"?>
<!-- Generator: Adobe Illustrator 16.0.0, SVG Export Plug-In . SVG Version: 6.00 Build 0)  -->
<!DOCTYPE svg PUBLIC "-//W3C//DTD SVG 1.1//EN" "http://www.w3.org/Graphics/SVG/1.1/DTD/svg11.dtd">
<svg version="1.1" id="Layer_1" xmlns="http://www.w3.org/2000/svg" xmlns:xlink="http://www.w3.org/1999/xlink" x="0px" y="0px"
	 width="30px" height="30px" viewBox="0 0 30 30" enable-background="new 0 0 30 30" xml:space="preserve">
<g id="ic_pending" opacity="0.7">
	<g id="Group_8850">
		<path id="Path_18903" fill="#007BFE" d="M15,27C8.373,27,3,21.627,3,15C3,8.373,8.373,3,15,3c6.627,0,12,5.373,12,12
			C26.992,21.625,21.625,26.992,15,27z M15,6c-4.971,0-9,4.029-9,9s4.029,9,9,9s9-4.029,9-9C23.995,10.031,19.969,6.005,15,6z"/>
	</g>
	<g id="Group_8851">
		<path id="Path_18904" fill="#007BFE" d="M21,18h-7.5V9h3v6H21V18z"/>
	</g>
	<path id="Rectangle_4429" fill="none" d="M0,0h30v30H0V0z"/>
</g>
</svg>
