<?xml version="1.0" encoding="utf-8"?>
<!-- Generator: Adobe Illustrator 16.0.0, SVG Export Plug-In . SVG Version: 6.00 Build 0)  -->
<!DOCTYPE svg PUBLIC "-//W3C//DTD SVG 1.1//EN" "http://www.w3.org/Graphics/SVG/1.1/DTD/svg11.dtd">
<svg version="1.1" id="Layer_1" xmlns="http://www.w3.org/2000/svg" xmlns:xlink="http://www.w3.org/1999/xlink" x="0px" y="0px"
	 width="24px" height="24px" viewBox="0 0 24 24" enable-background="new 0 0 24 24" xml:space="preserve">
<g id="radiobttom_active" transform="translate(-508 -240)">
	<path id="radio_on" fill="#007BFE" d="M520,246c-3.313,0-6,2.687-6,6s2.687,6,6,6s6-2.687,6-6c0.032-3.281-2.602-5.968-5.883-6
		C520.078,246,520.039,246,520,246z M520,240c-6.627,0-12,5.373-12,12c0,6.627,5.373,12,12,12c6.627,0,12-5.373,12-12
		C531.98,245.38,526.619,240.019,520,240z M520,261.6c-5.302,0-9.6-4.298-9.6-9.6s4.298-9.6,9.6-9.6s9.6,4.298,9.6,9.6
		C529.584,257.295,525.295,261.584,520,261.6z"/>
</g>
</svg>
