<?xml version="1.0" encoding="utf-8"?>
<!-- Generator: Adobe Illustrator 16.0.0, SVG Export Plug-In . SVG Version: 6.00 Build 0)  -->
<!DOCTYPE svg PUBLIC "-//W3C//DTD SVG 1.1//EN" "http://www.w3.org/Graphics/SVG/1.1/DTD/svg11.dtd">
<svg version="1.1" id="Layer_1" xmlns="http://www.w3.org/2000/svg" xmlns:xlink="http://www.w3.org/1999/xlink" x="0px" y="0px"
	 width="28px" height="24px" viewBox="0 0 28 24" enable-background="new 0 0 28 24" xml:space="preserve">
<title>Sub Menu Locked Copy</title>
<desc>Created with Sketch.</desc>
<g id="Sub-Menu-Locked-Copy">
	<g id="ic-unlock-staking" transform="translate(3.000000, 0.000000)">
		<g id="Group_8891">
			<polygon id="Rectangle_4445" fill="none" points="0,0 24,0 24,24 0,24 			"/>
		</g>
		<path id="Path_18910" fill="#007BFE" d="M21.448,11.966l1.259-1.259l-1.414-1.414l-1.259,1.259
			C18.587,9.346,16.854,8.532,15,8.191V7c0-2.761-2.238-5-5-5C7.239,2,5,4.239,5,7v1H4v10h7.16l2-2H6v-6h8v5.16l2-2v-2.635
			c0.945,0.334,1.828,0.825,2.611,1.45l-8.818,8.818l1.414,1.414l8.818-8.818C21.304,14.979,22.001,16.959,22,19v1h2v-1
			C24.002,16.429,23.098,13.938,21.448,11.966z M13,8H7V7c0-1.657,1.343-3,3-3c1.656,0,3,1.343,3,3V8z"/>
	</g>
</g>
</svg>
