<?xml version="1.0" encoding="utf-8"?>
<!-- Generator: Adobe Illustrator 16.0.0, SVG Export Plug-In . SVG Version: 6.00 Build 0)  -->
<!DOCTYPE svg PUBLIC "-//W3C//DTD SVG 1.1//EN" "http://www.w3.org/Graphics/SVG/1.1/DTD/svg11.dtd">
<svg version="1.1" id="ic-transaction-staked" xmlns="http://www.w3.org/2000/svg" xmlns:xlink="http://www.w3.org/1999/xlink"
	 x="0px" y="0px" width="24px" height="24px" viewBox="0 0 24 24" enable-background="new 0 0 24 24" xml:space="preserve">
<title>contract-icon-reward</title>
<g>
	<path fill="#007BFE" d="M17.8,15.4L14.7,12.6l-1.5-1.3C13,11.1,12.8,11,12.6,10.9c-0.399-0.2-0.899-0.2-1.3-0.1
		c-0.1,0-0.2,0-0.3,0.1s-0.2,0.2-0.3,0.3c-0.3,0.5-0.7,0.9-1.2,1.2c-0.5,0.3-1.2,0.2-1.6-0.3l0,0l0,0c0.2-0.3,0.3-0.7,0.4-1
		c0-0.7,0.3-1.3,0.7-1.8C9.3,9,9.7,8.8,10,8.6l0.3-0.1C9.4,8.4,8.5,8.6,7.8,9.1L7.5,9.3C7.3,9.5,7.1,9.6,6.8,9.7
		C6.5,9.8,6.2,9.8,6,9.8H4c0,0-1.2-0.2-1.2-0.1l-0.3,4.7L2.9,14.8h3.3c0.2-0.5,0.5-0.899,0.9-1.1C7.4,13.6,7.7,13.6,8,13.7
		c0.1,0.1,0.3,0.2,0.3,0.3c0.2-0.2,0.5-0.4,0.8-0.4c0.3,0,0.6,0.101,0.8,0.4c0.2-0.2,0.5-0.4,0.8-0.4l0,0c0.3,0,0.6,0.2,0.8,0.4
		c0.3-0.2,0.6-0.3,1-0.2c0.4,0.101,0.7,0.5,0.7,0.9c0,0.2-0.101,0.399-0.2,0.6c-0.4,0.7-0.8,1.3-1.2,2c0.3,0.4,0.7,0.7,1.2,0.7l0,0
		c0.2,0,0.3-0.1,0.4-0.2c0-0.1,0-0.2,0-0.2c0-0.1-0.101-0.199-0.2-0.199l-0.7-0.7l0.3-0.2l0.8,0.7c0.2,0.2,0.5,0.399,0.801,0.399
		l0,0c0.199,0,0.3-0.1,0.399-0.199C14.9,17.3,14.9,17.2,14.9,17.1C14.8,17,14.8,16.9,14.6,16.8l-1-1v-0.1V15.6l0.2-0.199V15.3
		L13.9,15.4c0.5,0.5,1,0.899,1.5,1.3c0.199,0.2,0.5,0.3,0.8,0.3c0.2-0.1,0.399-0.3,0.3-0.6c-0.1-0.2-0.2-0.4-0.4-0.5l-1.5-1.4
		l0.301-0.3v0.1c0.6,0.5,1.199,1.101,1.8,1.601c0.2,0.199,0.5,0.3,0.8,0.399c0.3,0.101,0.5-0.1,0.6-0.399
		C18.2,15.9,18,15.6,17.8,15.4z"/>
	<path fill="#007BFE" d="M21.1,9.9c-0.199,0-1.5,0.1-1.6,0.1h-2.4c-0.399,0-0.8,0-1.199-0.1c-0.4-0.1-0.9-0.4-1.2-0.7
		c-0.4-0.3-0.8-0.5-1.3-0.6C13.1,8.5,12.8,8.5,12.5,8.5h-0.4c-0.2,0-0.4,0-0.6,0c-0.3,0-0.5,0.1-0.8,0.3c-0.2,0.1-0.4,0.2-0.6,0.3
		c-0.4,0.1-0.7,0.4-1,0.7C9,9.9,8.9,10.2,8.8,10.4l-0.6,1.3l0,0l0,0c0.1,0.1,0.3,0.1,0.4,0.1h0.1c0.4-0.1,0.7-0.3,0.9-0.6L9.8,11
		c0.2-0.3,0.4-0.5,0.7-0.7c0.3-0.2,0.6-0.2,1-0.2h0.4c0.2,0,0.5,0,0.7,0.1c0.2,0.1,0.4,0.2,0.601,0.4l4.5,3.9
		c0.1,0.1,0.2,0.2,0.3,0.2h1.5l1.8-0.101c0-0.8,0.2-1.6,0.101-2.399C21.3,11.4,21.1,10.7,21.1,9.9z"/>
	<path fill="#007BFE" d="M6.5,16.1c0.2,0.101,0.4,0.101,0.6,0c0.2-0.1,0.3-0.3,0.4-0.5l0.4-0.8C7.9,14.7,8,14.6,8,14.4
		C8,14.3,7.8,14.2,7.7,14.1H7.6c-0.6,0-1,0.801-1.2,1.5c0,0.101,0,0.101,0,0.2C6.4,16,6.4,16.1,6.5,16.1z"/>
	<path fill="#007BFE" d="M9.6,14.6C9.6,14.4,9.5,14.2,9.3,14.2l0,0H9.2H9.1c-0.2,0.1-0.4,0.2-0.5,0.399C8.4,14.9,8.2,15.2,8,15.6
		C7.9,15.7,7.9,15.9,7.8,16c-0.1,0.2-0.2,0.3-0.2,0.5c0,0.1,0,0.2,0.1,0.3C7.8,16.9,7.9,16.9,8,16.9s0.3-0.101,0.4-0.2
		c0.1-0.101,0.1-0.2,0.2-0.3l0.5-1L9.3,15.1C9.4,15,9.5,14.8,9.6,14.6z"/>
	<path fill="#007BFE" d="M11.2,14.5c0-0.1-0.1-0.2-0.3-0.2h-0.2c-0.3,0-0.6,0.2-0.8,0.7L9,16.6C8.9,16.8,8.8,17,8.8,17.2
		S9,17.6,9.2,17.6c0.1,0,0.3,0,0.4-0.1s0.2-0.2,0.2-0.3l1.3-2.2c0.1-0.1,0.1-0.2,0.1-0.2C11.3,14.6,11.3,14.5,11.2,14.5z"/>
	<path fill="#007BFE" d="M12.5,14.4h-0.1c-0.4,0-0.6,0.399-0.9,0.8l-0.1,0.2l-1,1.8c0,0.1-0.1,0.2-0.1,0.3s0,0.2,0,0.3
		c0.1,0.101,0.1,0.2,0.2,0.2c0.2,0.1,0.4,0.1,0.6-0.1c0.1-0.101,0.2-0.2,0.3-0.4l1.3-2.1c0.1-0.2,0.2-0.4,0.2-0.601
		C12.8,14.6,12.6,14.4,12.5,14.4z"/>
	<path fill="#007BFE" d="M15.8,9.3L15.8,9.3c0.101-0.1,0.5-0.6,0.5-0.8c0-0.1,0-0.1,0,0c-0.2,0-0.399,0-0.6,0h-1.3
		C14.8,8.8,15.3,9.1,15.8,9.3L15.8,9.3z"/>
</g>
<circle fill="none" stroke="#007BFE" stroke-width="2" stroke-miterlimit="10" cx="12" cy="12.2" r="10"/>
</svg>
