<?xml version="1.0" encoding="utf-8"?>
<!-- Generator: Adobe Illustrator 16.0.0, SVG Export Plug-In . SVG Version: 6.00 Build 0)  -->
<!DOCTYPE svg PUBLIC "-//W3C//DTD SVG 1.1//EN" "http://www.w3.org/Graphics/SVG/1.1/DTD/svg11.dtd">
<svg version="1.1" id="ic-transaction-mint" xmlns="http://www.w3.org/2000/svg" xmlns:xlink="http://www.w3.org/1999/xlink"
	 x="0px" y="0px" width="24px" height="24px" viewBox="0 0 24 24" enable-background="new 0 0 24 24" xml:space="preserve">
<g id="Group_8823">
	<path id="Path_18880" fill="#007BFE" d="M8,12c0,2.209,1.791,4,4,4s4-1.791,4-4s-1.791-4-4-4S8,9.791,8,12z M14,12
		c0,1.104-0.896,2-2,2s-2-0.896-2-2s0.896-2,2-2S14,10.896,14,12z"/>
	<path id="Path_18881" fill="#007BFE" d="M7,8H5.092C7.293,4.178,12.177,2.864,16,5.065c2.479,1.428,4.005,4.073,4,6.935h2
		c0.006-5.516-4.461-9.993-9.977-9.999C8.863,1.998,5.887,3.49,4,6.025V5H2v5h5V8z"/>
	<path id="Path_18882" fill="#007BFE" d="M17,16h1.91c-2.202,3.822-7.086,5.137-10.909,2.936C5.521,17.507,3.995,14.861,4,12H2
		c-0.007,5.516,4.459,9.993,9.976,10c3.161,0.004,6.137-1.488,8.024-4.023V19h2v-5h-5V16z"/>
</g>
<path id="Rectangle_4408" fill="none" d="M0,0h24v24H0V0z"/>
</svg>
