<?xml version="1.0" encoding="utf-8"?>
<!-- Generator: Adobe Illustrator 16.0.0, SVG Export Plug-In . SVG Version: 6.00 Build 0)  -->
<!DOCTYPE svg PUBLIC "-//W3C//DTD SVG 1.1//EN" "http://www.w3.org/Graphics/SVG/1.1/DTD/svg11.dtd">
<svg version="1.1" id="ic-transaction-staked" xmlns="http://www.w3.org/2000/svg" xmlns:xlink="http://www.w3.org/1999/xlink"
	 x="0px" y="0px" width="24px" height="24px" viewBox="0 0 24 24" enable-background="new 0 0 24 24" xml:space="preserve">
<path id="Path_18914" fill="#007BFE" d="M18,6V4.854c-0.078-1.655-1.482-2.933-3.139-2.855c-1.431,0.067-2.614,1.138-2.825,2.555
	L12,4.586l-0.033-0.033c-0.245-1.638-1.772-2.768-3.411-2.523C7.086,2.25,5.999,3.513,6,5v1H2v6h2v10h16V12h2V6H18z M14,5.414V5
	c0-0.552,0.447-1,1-1s1,0.448,1,1v1h-2.586L14,5.414z M13,8v8h-2V8H13z M8,5c0-0.552,0.448-1,1-1s1,0.448,1,1v0.414L10.586,6H8V5z
	 M4,8h5v2H4V8z M18,20H6v-8h3v6h6v-6h3V20z M20,10h-5V8h5V10z"/>
<path id="Rectangle_4527" fill="none" d="M0,0h24v24H0V0z"/>
</svg>
