<?xml version="1.0" encoding="utf-8"?>
<!-- Generator: Adobe Illustrator 16.0.0, SVG Export Plug-In . SVG Version: 6.00 Build 0)  -->
<!DOCTYPE svg PUBLIC "-//W3C//DTD SVG 1.1//EN" "http://www.w3.org/Graphics/SVG/1.1/DTD/svg11.dtd">
<svg version="1.1" id="ic_unlock_staking" xmlns="http://www.w3.org/2000/svg" xmlns:xlink="http://www.w3.org/1999/xlink" x="0px"
	 y="0px" width="24px" height="24px" viewBox="0 0 24 24" enable-background="new 0 0 24 24" xml:space="preserve">
<g id="Group_8891">
	<path id="Rectangle_4445" fill="none" d="M0,0h24v24H0V0z"/>
</g>
<path id="Path_18910" fill="#007BFE" d="M19.448,11.966l1.259-1.259l-1.414-1.414l-1.259,1.259C16.587,9.346,14.854,8.532,13,8.191
	V7c0-2.761-2.239-5-5-5S3,4.239,3,7v1H2v10h7.16l2-2H4v-6h8v5.16l2-2v-2.635c0.945,0.334,1.828,0.825,2.611,1.45l-8.818,8.818
	l1.414,1.414l8.818-8.818C19.304,14.979,20.001,16.959,20,19v1h2v-1C22.002,16.429,21.098,13.938,19.448,11.966z M11,8H5V7
	c0-1.657,1.343-3,3-3s3,1.343,3,3V8z"/>
</svg>
