<?xml version="1.0" encoding="utf-8"?>
<!-- Generator: Adobe Illustrator 16.0.0, SVG Export Plug-In . SVG Version: 6.00 Build 0)  -->
<!DOCTYPE svg PUBLIC "-//W3C//DTD SVG 1.1//EN" "http://www.w3.org/Graphics/SVG/1.1/DTD/svg11.dtd">
<svg version="1.1" id="Layer_1" xmlns="http://www.w3.org/2000/svg" xmlns:xlink="http://www.w3.org/1999/xlink" x="0px" y="0px"
	 width="24px" height="24px" viewBox="0 0 24 24" enable-background="new 0 0 24 24" xml:space="preserve">
<title>Artboard</title>
<desc>Created with Sketch.</desc>
<g id="Artboard">
	<g id="ic-update" transform="translate(2.000000, 2.000000)">
		<polygon id="Rectangle_4642" fill="none" points="0,0 20,0 20,20 0,20 		"/>
		<path id="Path_18962" fill="#007BFE" d="M13,8.5h5v-5h-2v1.215c-2.435-2.766-6.443-3.512-9.709-1.806S1.346,8.331,2.226,11.91
			C3.105,15.488,6.315,18.002,10,18c2.123,0.006,4.16-0.838,5.657-2.343l-1.414-1.414c-1.777,1.78-4.477,2.263-6.761,1.208
			c-2.284-1.054-3.668-3.422-3.466-5.929s1.947-4.623,4.371-5.298c2.424-0.675,5.011,0.234,6.48,2.276H13V8.5z"/>
	</g>
</g>
</svg>
