<?xml version="1.0" encoding="utf-8"?>
<!-- Generator: Adobe Illustrator 16.0.0, SVG Export Plug-In . SVG Version: 6.00 Build 0)  -->
<!DOCTYPE svg PUBLIC "-//W3C//DTD SVG 1.1//EN" "http://www.w3.org/Graphics/SVG/1.1/DTD/svg11.dtd">
<svg version="1.1" id="Group_9077" xmlns="http://www.w3.org/2000/svg" xmlns:xlink="http://www.w3.org/1999/xlink" x="0px" y="0px"
	 width="24px" height="24px" viewBox="0 0 24 24" enable-background="new 0 0 24 24" xml:space="preserve">
<g id="Group_8292" transform="translate(8 8)">
	<path id="Path_18418" fill="#007BFE" d="M4,8C1.791,8,0,6.209,0,4s1.791-4,4-4s4,1.791,4,4c0.021,2.188-1.734,3.979-3.921,4
		C4.052,8,4.026,8,4,8z M4,1.6C2.674,1.6,1.6,2.674,1.6,4c0,1.326,1.074,2.4,2.4,2.4c1.326,0,2.4-1.074,2.4-2.4l0,0
		c0.023-1.302-1.012-2.376-2.313-2.4C4.058,1.6,4.029,1.6,4,1.6z"/>
</g>
<path id="Rectangle_3656" fill="none" d="M0,0h24v24H0V0z"/>
<g id="Group_8293" transform="translate(.95 4)">
	<path id="Path_18419" fill="#007BFE" d="M11.05,16c-4.562,0-8.337-2.578-10.932-7.556c-0.156-0.275-0.156-0.613,0-0.889
		C2.713,2.578,6.488,0,11.05,0c4.563,0,8.337,2.578,10.932,7.556c0.156,0.275,0.156,0.613,0,0.889C19.387,13.422,15.612,16,11.05,16
		z M1.77,8c1.573,2.934,4.48,6.223,9.28,6.223S18.757,10.934,20.329,8c-1.572-2.933-4.479-6.222-9.279-6.222S3.343,5.067,1.77,8z"/>
</g>
</svg>
