<?xml version="1.0" encoding="utf-8"?>
<!-- Generator: Adobe Illustrator 16.0.0, SVG Export Plug-In . SVG Version: 6.00 Build 0)  -->
<!DOCTYPE svg PUBLIC "-//W3C//DTD SVG 1.1//EN" "http://www.w3.org/Graphics/SVG/1.1/DTD/svg11.dtd">
<svg version="1.1" id="Layer_1" xmlns="http://www.w3.org/2000/svg" xmlns:xlink="http://www.w3.org/1999/xlink" x="0px" y="0px"
	 width="72.667px" height="72.667px" viewBox="0 0 72.667 72.667" enable-background="new 0 0 72.667 72.667" xml:space="preserve">
<g id="img_Qr">
	<path id="Path_279" fill="#007BFE" d="M34.681,10.353V3.4c-1.135,0-2.171,0-3.207,0.049c-0.1,0-0.345,0.345-0.345,0.542
		c-0.049,0.937,0,1.873,0,2.859h-3.4V0h10.36v6.9h3.552V0h3.399v10.353h-3.453v7h3.4v13.8h3.5V27.8h3.4v6.853H41.587v3.896
		c0,0.738-0.049,1.527,0,2.268c0.049,0.592-0.199,0.789-0.789,0.739c-0.887-0.05-1.727,0-2.762,0v3.55h-3.401v3.4
		c-0.987,0-1.924,0.049-2.812,0c-0.543,0-0.691,0.147-0.691,0.689c0.049,0.938,0,1.824,0,2.811h3.552v3.451h-6.909V45.156h3.4
		v-3.451h3.453v-6.899h-3.453v6.8h-3.4V31.354h3.355V27.8h-3.455V21h3.4c0,0.887,0.049,1.775,0,2.662
		c-0.049,0.641,0.148,0.838,0.789,0.789c0.937-0.049,1.825,0,2.763,0v6.8h3.4V24.4c0.987,0,1.974-0.049,2.96,0
		c0.444,0,0.592-0.148,0.592-0.592V21.4c0-0.444-0.147-0.592-0.592-0.592h-2.91V10.451c-1.129-0.13-2.267-0.164-3.401-0.1
		L34.681,10.353z"/>
	<path id="Path_280" fill="#007BFE" d="M24.272,0c0,0.3-0.049,0.592-0.049,0.937v22.382c0,0.74-0.2,0.887-0.888,0.887
		c-7.449-0.049-14.948,0-22.4,0c-0.3,0-0.592,0.049-0.937,0.049V0H24.272z M20.72,3.451c-0.247,0-0.444-0.049-0.641-0.049H4.095
		c-0.592,0-0.691,0.2-0.691,0.74v15.973c0,0.2,0.049,0.394,0.049,0.592H20.72V3.451z"/>
	<path id="Path_281" fill="#007BFE" d="M72.667,24.255c-0.301,0-0.592-0.049-0.938-0.049h-22.4c-0.74,0-0.888-0.2-0.888-0.887
		c0.05-7.444,0-14.938,0-22.382c0-0.3-0.049-0.592-0.049-0.937h24.272L72.667,24.255z M69.214,20.705c0-0.3,0.049-0.542,0.049-0.789
		V4.19c0-0.69-0.247-0.789-0.84-0.789H51.947v17.3L69.214,20.705z"/>
	<path id="Path_282" fill="#007BFE" d="M0,48.362c0.3,0,0.592,0.05,0.937,0.05h22.446c0.74,0,0.888,0.199,0.888,0.887
		c-0.049,7.492,0,14.938,0,22.431c0,0.3,0.049,0.593,0.049,0.937H0.049C0,64.533,0,56.447,0,48.362z M20.72,51.912
		c-0.2,0-0.3-0.049-0.444-0.049H4.046c-0.592,0-0.641,0.301-0.641,0.739v15.825c0,0.641,0.2,0.838,0.839,0.838
		c5.229-0.049,10.458-0.049,15.688,0c0.691,0,0.888-0.148,0.888-0.838c-0.049-5.227,0-10.451,0-15.678
		C20.769,52.455,20.769,52.207,20.72,51.912z"/>
	<path id="Path_283" fill="#007BFE" d="M0,27.657h3.355v17.299H0V27.657z"/>
	<path id="Path_284" fill="#007BFE" d="M72.667,31.057H65.81v-3.4h6.857V31.057z"/>
	<path id="Path_285" fill="#007BFE" d="M48.391,65.666v6.951h-3.399c0-2.316,0.049-4.634,0.049-7h-0.049
		C46.126,65.666,47.259,65.666,48.391,65.666z"/>
	<path id="Path_286" fill="#007BFE" d="M27.676,72.617v-3.4h6.956v3.4H27.676z"/>
	<path id="Path_287" fill="#007BFE" d="M72.664,69.214h-3.4v-3.549h3.4V69.214z"/>
	<path id="Path_288" fill="#007BFE" d="M72.667,38.007h-3.355v-3.399h3.355V38.007z"/>
	<path id="Path_289" fill="#007BFE" d="M72.664,58.712h-3.4v-3.399h3.4V58.712z"/>
	<path id="Path_290" fill="#007BFE" d="M55.351,72.617v-3.4h3.4v3.4H55.351z"/>
	<path id="Path_291" fill="#007BFE" d="M55.351,69.214h-3.4v-3.553h-3.6c0.049-1.527,0.049-3.057,0.1-4.584v-2.316h-6.863v-3.399
		h10.31v-7h3.354v3.5h3.453c0,0.345,0.049,0.642,0.049,0.888v5.373c0,0.543,0.148,0.69,0.691,0.69h9.669v3.399H55.302
		C55.351,64.63,55.351,66.949,55.351,69.214L55.351,69.214z"/>
	<path id="Path_292" fill="#007BFE" d="M62.307,44.96v-3.451H55.4v3.451h-3.453v-3.5h-3.453c0-1.086,0-2.121,0.049-3.106
		c0-0.101,0.396-0.3,0.642-0.3h9.718V27.755h3.4v6.853h3.4v10.399C64.576,44.96,63.442,44.96,62.307,44.96L62.307,44.96z"/>
	<path id="Path_293" fill="#007BFE" d="M34.631,69.216v-3.553h-6.857v-6.853h6.857v-3.547h3.4v3.5c0.938,0,1.825,0.049,2.713,0
		c0.592-0.05,0.789,0.147,0.789,0.739c-0.049,0.888,0,1.726,0,2.662H38.08v7C36.851,69.216,35.766,69.216,34.631,69.216
		L34.631,69.216z"/>
	<path id="Path_294" fill="#007BFE" d="M37.986,45.009h3.5v3.4h3.453v3.399h-6.906c0-2.317,0-4.585-0.05-6.8H37.986z"/>
	<path id="Path_295" fill="#007BFE" d="M62.302,51.912h-3.399V44.96h3.399V51.912z"/>
	<path id="Path_296" fill="#007BFE" d="M69.312,55.312h-6.956v-3.4h6.956V55.312z"/>
	<path id="Path_297" fill="#007BFE" d="M51.947,44.96v3.4h-3.453v-3.4H51.947z"/>
	<path id="Path_298" fill="#007BFE" d="M44.942,44.908h-3.354v-3.3h3.354V44.908z"/>
	<path id="Path_299" fill="#007BFE" d="M45.037,65.664h-3.399v-3.301h3.399C44.988,63.462,44.988,64.564,45.037,65.664z"/>
	<path id="Path_300" fill="#007BFE" d="M20.67,37.958c0,0.986,0.049,1.973,0.049,2.959c0,0.443,0.148,0.641,0.592,0.592
		c0.937-0.049,1.825,0,2.812,0v3.35H6.956v-3.352h3.355v-6.948h6.956v3.353c1.131,0.089,2.267,0.105,3.4,0.049L20.67,37.958z"/>
	<path id="Path_301" fill="#007BFE" d="M10.36,34.606H7.005v-6.9h6.759v3.3h-3.4c-0.049,1.2-0.049,2.401,0,3.6H10.36z"/>
	<path id="Path_302" fill="#007BFE" d="M27.676,27.607v3.4H17.365v-3.4C20.818,27.656,24.222,27.656,27.676,27.607L27.676,27.607z"
		/>
	<path id="Path_303" fill="#007BFE" d="M34.632,10.303v3.4h-6.907v-3.4C30.044,10.352,32.362,10.352,34.632,10.303z"/>
	<path id="Path_304" fill="#007BFE" d="M34.631,24.256v-3.55h3.355v3.55H34.631z"/>
	<path id="Path_305" fill="#007BFE" d="M20.67,38.009v-3.352h3.453v3.299c-1.135,0-2.319,0-3.453,0.049V38.009z"/>
	<path id="Path_306" fill="#007BFE" d="M65.662,69.117h-3.306v-3.352h3.306V69.117z"/>
	<path id="Path_307" fill="#007BFE" d="M17.266,7v10.2H7.005V7H17.266z"/>
	<path id="Path_308" fill="#007BFE" d="M55.451,6.951h10.26v10.254h-10.26V6.951z"/>
	<path id="Path_309" fill="#007BFE" d="M17.217,65.666H7.005V55.412h10.212V65.666z"/>
</g>
</svg>
