<?xml version="1.0" standalone="no"?>
<!DOCTYPE svg PUBLIC "-//W3C//DTD SVG 20010904//EN"
 "http://www.w3.org/TR/2001/REC-SVG-20010904/DTD/svg10.dtd">
<svg version="1.0" xmlns="http://www.w3.org/2000/svg"
 width="900.000000pt" height="300.000000pt" viewBox="0 0 900.000000 300.000000"
 preserveAspectRatio="xMidYMid meet">

<g transform="translate(0.000000,300.000000) scale(0.100000,-0.100000)"
fill="#000000" stroke="none">
<path d="M5291 1915 c-144 -156 -159 -423 -34 -613 47 -70 77 -92 126 -92 l40
0 -52 55 c-98 104 -145 256 -122 397 15 93 61 188 120 249 l47 49 -42 0 c-36
0 -46 -5 -83 -45z"/>
<path d="M6502 1909 c167 -178 165 -466 -3 -644 l-52 -55 42 0 c35 0 47 6 82
41 53 53 105 164 121 257 24 142 -22 308 -112 406 -38 41 -48 46 -84 46 l-42
0 48 -51z"/>
<path d="M4202 1808 c-28 -28 -7 -78 33 -78 27 0 45 18 45 45 0 27 -18 45 -45
45 -12 0 -26 -5 -33 -12z"/>
<path d="M4030 1565 l0 -235 35 0 35 0 0 235 0 235 -35 0 -35 0 0 -235z"/>
<path d="M6164 1766 c-49 -22 -74 -61 -74 -118 0 -38 5 -54 24 -73 21 -21 109
-55 141 -55 26 0 65 -42 65 -69 0 -71 -125 -91 -150 -25 -8 19 -17 24 -45 24
-30 0 -35 -3 -35 -24 0 -33 34 -73 76 -86 57 -19 149 -8 180 21 56 51 63 127
18 173 -14 14 -53 31 -90 42 -36 9 -77 26 -90 36 -49 39 -16 108 51 108 27 0
39 -7 57 -30 18 -24 29 -30 61 -30 35 0 38 2 32 23 -12 39 -33 64 -68 81 -42
19 -110 20 -153 2z"/>
<path d="M3700 1550 l0 -220 35 0 35 0 0 100 0 100 75 0 c73 0 75 1 75 25 0
24 -2 25 -75 25 l-75 0 0 70 0 70 95 0 c95 0 95 0 95 25 l0 25 -130 0 -130 0
0 -220z"/>
<path d="M4380 1725 c0 -38 -3 -45 -20 -45 -16 0 -20 -7 -20 -30 0 -23 4 -30
20 -30 19 0 20 -7 20 -114 0 -63 3 -122 6 -131 10 -25 58 -45 109 -45 43 0 45
1 45 30 0 27 -3 30 -33 30 -51 0 -57 13 -57 126 l0 103 43 3 c38 3 42 6 45 31
3 26 2 27 -42 27 l-46 0 0 45 c0 45 0 45 -35 45 -35 0 -35 0 -35 -45z"/>
<path d="M5480 1550 l0 -220 40 0 40 0 0 100 0 100 70 0 c68 0 70 1 70 25 0
24 -2 25 -70 25 l-70 0 0 70 0 70 90 0 c89 0 90 0 90 25 l0 25 -130 0 -130 0
0 -220z"/>
<path d="M5810 1550 l0 -220 110 0 110 0 0 30 0 30 -75 0 -75 0 0 190 0 190
-35 0 -35 0 0 -220z"/>
<path d="M4653 1671 c-49 -23 -65 -49 -61 -99 4 -44 44 -76 110 -86 57 -9 90
-32 86 -59 -7 -52 -98 -61 -120 -12 -9 19 -19 25 -45 25 -42 0 -45 -27 -5 -70
43 -49 124 -59 194 -23 34 17 48 42 48 87 0 43 -28 72 -85 87 -93 23 -110 33
-110 64 0 23 6 32 26 39 38 13 78 0 89 -29 7 -19 17 -25 40 -25 39 0 49 24 23
58 -24 34 -79 62 -118 62 -16 0 -49 -9 -72 -19z"/>
<path d="M4200 1505 l0 -175 35 0 35 0 0 175 0 175 -35 0 -35 0 0 -175z"/>
</g>
</svg>
