<?xml version="1.0" encoding="utf-8"?>
<!-- Generator: Adobe Illustrator 16.0.0, SVG Export Plug-In . SVG Version: 6.00 Build 0)  -->
<!DOCTYPE svg PUBLIC "-//W3C//DTD SVG 1.1//EN" "http://www.w3.org/Graphics/SVG/1.1/DTD/svg11.dtd">
<svg version="1.1" id="ic_dark_staking_on" xmlns="http://www.w3.org/2000/svg" xmlns:xlink="http://www.w3.org/1999/xlink" x="0px"
	 y="0px" width="100px" height="100px" viewBox="0 0 100 100" enable-background="new 0 0 100 100" xml:space="preserve">
<g id="Group_9053">
	<g id="Group_9051">
		<ellipse id="Ellipse_640" fill="#413D4A" cx="80" cy="56" rx="12" ry="4"/>
		<ellipse id="Ellipse_641" fill="#413D4A" cx="64" cy="68" rx="12" ry="4"/>
		<path id="Rectangle_4706" fill="#413D4A" d="M32,24h14v14H32V24z"/>
	</g>
	<g id="Group_9052">
		<path id="Rectangle_4707" fill="#A09EA5" d="M12,60h2v4h-2V60z"/>
		<path id="Path_19001" fill="#A09EA5" d="M92.046,57.994C92.627,57.49,92.973,56.769,93,56c0-3.283-6.54-5-13-5s-13,1.717-13,5
			c0.027,0.769,0.373,1.49,0.954,1.994c-1.104,0.895-1.275,2.514-0.382,3.619c0.113,0.14,0.242,0.268,0.382,0.381
			c-0.34,0.322-0.604,0.715-0.774,1.15C66.793,63.11,66.4,63.082,66,63.061V39h5V23H52.645c3.869-3.113,4.484-8.773,1.371-12.644
			c-3.112-3.871-8.773-4.485-12.644-1.372C40.385,9.778,39.577,10.772,39,11.9c-2.258-4.424-7.675-6.181-12.1-3.922
			c-4.424,2.258-6.181,7.675-3.922,12.1c0.577,1.131,1.388,2.127,2.378,2.923H7v16h5v17h2V39h50v24c-6.46,0-13,1.717-13,5
			c0.027,0.769,0.373,1.49,0.954,1.994c-1.104,0.895-1.275,2.514-0.382,3.619c0.113,0.14,0.242,0.268,0.382,0.381
			c-0.304,0.287-0.551,0.628-0.728,1.006H14v-7h-2v9h39.23c0.178,0.373,0.424,0.71,0.724,0.994
			c-1.104,0.895-1.275,2.514-0.382,3.619c0.113,0.14,0.242,0.268,0.382,0.381c-1.104,0.895-1.275,2.514-0.382,3.619
			c0.113,0.14,0.242,0.268,0.382,0.381C51.37,86.5,51.023,87.228,51,88c0,3.283,6.54,5,13,5c5.874,0,11.8-1.424,12.826-4.15
			C77.868,88.943,78.932,89,80,89c6.46,0,13-1.717,13-5c-0.023-0.772-0.37-1.5-0.954-2.006c1.104-0.895,1.275-2.514,0.382-3.619
			c-0.113-0.14-0.242-0.268-0.382-0.381c1.104-0.895,1.275-2.514,0.382-3.619c-0.113-0.14-0.242-0.268-0.382-0.381
			c1.104-0.895,1.275-2.514,0.382-3.619c-0.113-0.14-0.242-0.268-0.382-0.381c1.104-0.895,1.275-2.514,0.382-3.619
			c-0.113-0.14-0.242-0.268-0.382-0.381c1.104-0.895,1.275-2.514,0.382-3.619c-0.113-0.14-0.242-0.268-0.382-0.381
			c1.104-0.895,1.275-2.514,0.382-3.619C92.314,58.235,92.186,58.107,92.046,57.994L92.046,57.994z M31,37H9V25h22V37z M24,16
			c0-3.866,3.134-7,7-7s7,3.134,7,7v7h-7C27.136,22.996,24.004,19.864,24,16z M45,37H33V25h12V37z M40,23v-7c0-3.866,3.134-7,7-7
			s7,3.134,7,7s-3.134,7-7,7H40z M47,37V25h22v12H47z M51,76c0.001,0.174,0.021,0.346,0.061,0.516C51.021,76.346,51,76.174,51,76z
			 M64,91c-7.117,0-11-1.982-11-3c0-0.241,0.247-0.539,0.678-0.85C56.18,88.37,60.1,89,64,89s7.82-0.63,10.322-1.85
			C74.753,87.461,75,87.759,75,88C75,89.018,71.117,91,64,91z M64,87c-7.117,0-11-1.982-11-3c0-0.241,0.247-0.539,0.678-0.85
			C56.18,84.37,60.1,85,64,85s7.82-0.63,10.322-1.85C74.753,83.461,75,83.759,75,84C75,85.018,71.117,87,64,87z M64,83
			c-7.117,0-11-1.982-11-3c0-0.241,0.247-0.539,0.678-0.85C56.18,80.37,60.1,81,64,81s7.82-0.63,10.322-1.85
			C74.753,79.461,75,79.759,75,80C75,81.018,71.117,83,64,83z M64,79c-7.117,0-11-1.982-11-3c0-0.241,0.247-0.539,0.678-0.85
			C56.18,76.37,60.1,77,64,77s7.82-0.63,10.322-1.85C74.753,75.461,75,75.759,75,76C75,77.018,71.117,79,64,79z M64,75
			c-7.117,0-11-1.982-11-3c0-0.241,0.247-0.539,0.678-0.85C56.18,72.37,60.1,73,64,73s7.82-0.63,10.322-1.85
			C74.753,71.461,75,71.759,75,72C75,73.018,71.117,75,64,75z M64,71c-7.117,0-11-1.982-11-3s3.883-3,11-3s11,1.982,11,3
			S71.117,71,64,71z M80,87c-1.207,0-2.3-0.068-3.313-0.168c-0.17-0.311-0.387-0.594-0.642-0.838
			c0.341-0.322,0.608-0.715,0.781-1.151C77.868,84.943,78.927,85,80,85c3.9,0,7.82-0.63,10.322-1.85C90.753,83.461,91,83.759,91,84
			C91,85.018,87.117,87,80,87z M80,83c-1.207,0-2.3-0.068-3.313-0.168c-0.17-0.311-0.387-0.594-0.642-0.838
			c0.341-0.322,0.608-0.715,0.781-1.151C77.868,80.943,78.927,81,80,81c3.9,0,7.82-0.63,10.322-1.85C90.753,79.461,91,79.759,91,80
			C91,81.018,87.117,83,80,83z M80,79c-1.207,0-2.3-0.068-3.313-0.168c-0.17-0.311-0.387-0.594-0.642-0.838
			c0.341-0.322,0.608-0.715,0.781-1.151C77.868,76.943,78.927,77,80,77c3.9,0,7.82-0.63,10.322-1.85C90.753,75.461,91,75.759,91,76
			C91,77.018,87.117,79,80,79z M80,75c-1.207,0-2.3-0.068-3.313-0.168c-0.17-0.311-0.387-0.594-0.642-0.838
			c0.341-0.322,0.608-0.715,0.781-1.151C77.868,72.943,78.927,73,80,73c3.9,0,7.82-0.63,10.322-1.85C90.753,71.461,91,71.759,91,72
			C91,73.018,87.117,75,80,75z M80,71c-1.207,0-2.3-0.068-3.313-0.168c-0.17-0.311-0.387-0.594-0.642-0.838
			c0.341-0.322,0.608-0.715,0.781-1.151C77.868,68.943,78.927,69,80,69c3.9,0,7.82-0.63,10.322-1.85C90.753,67.461,91,67.759,91,68
			C91,69.018,87.117,71,80,71z M80,67c-1.2,0-2.287-0.066-3.3-0.166c-0.621-1.162-2.175-2.063-4.214-2.7
			C74.947,64.727,77.47,65.018,80,65c3.9,0,7.82-0.63,10.322-1.85C90.753,63.461,91,63.759,91,64C91,65.018,87.117,67,80,67z
			 M69.368,63.417c0.097-0.097,0.2-0.185,0.31-0.267c0.592,0.277,1.201,0.512,1.826,0.701
			C70.799,63.678,70.086,63.532,69.368,63.417z M80,63c-7.117,0-11-1.982-11-3c0-0.241,0.247-0.539,0.678-0.85
			C72.18,60.37,76.1,61,80,61s7.82-0.63,10.322-1.85C90.753,59.461,91,59.759,91,60C91,61.018,87.117,63,80,63z M80,59
			c-7.117,0-11-1.982-11-3s3.883-3,11-3s11,1.982,11,3S87.117,59,80,59z"/>
	</g>
</g>
<path id="Rectangle_4709" fill="none" d="M0,0h100v100H0V0z"/>
<image overflow="visible" opacity="0.51" width="640" height="640" xlink:href="../../fls.png"  transform="matrix(0.048 0 0 0.048 23.6255 41.251)">
</image>
</svg>
