<?xml version="1.0" encoding="utf-8"?>
<!-- Generator: Adobe Illustrator 16.0.0, SVG Export Plug-In . SVG Version: 6.00 Build 0)  -->
<!DOCTYPE svg PUBLIC "-//W3C//DTD SVG 1.1//EN" "http://www.w3.org/Graphics/SVG/1.1/DTD/svg11.dtd">
<svg version="1.1" id="ic-transaction-staked" xmlns="http://www.w3.org/2000/svg" xmlns:xlink="http://www.w3.org/1999/xlink"
	 x="0px" y="0px" width="1280px" height="720px" viewBox="0 0 1280 720" enable-background="new 0 0 1280 720" xml:space="preserve"
	>
<g>
	<path fill="none" d="M829,390L829,390L829,390z"/>
</g>
<path fill="none" d="M586,174l-18-30c-3-9-12-18-21-21c-3,0-9-3-12-3c-6,0-12,0-15,3c-21,12-30,33-21,51H586z"/>
<path fill="none" d="M787,147c-3-9-12-18-21-21c-6-3-18-6-27-3s-18,9-24,18l-18,30h87C790,165,790,156,787,147z"/>
<rect x="457" y="303" fill="none" width="369" height="288"/>
<rect x="388" y="213" fill="none" width="510" height="48"/>
<g>
	<path fill="none" d="M586,174l-18-30c-3-9-12-18-21-21c-3,0-9-3-12-3c-6,0-12,0-15,3c-21,12-30,33-21,51H586z"/>
	<path fill="none" d="M787,147c-3-9-12-18-21-21c-6-3-18-6-27-3s-18,9-24,18l-18,30h87C790,165,790,156,787,147z"/>
	<rect x="457" y="303" fill="none" width="369" height="288"/>
	<path fill="#007BFE" d="M946,174h-99c3-15,3-30-3-45c-9-21-24-39-48-51s-51-15-75-6s-45,24-57,45l-21,33l-21-36c-12-18-33-33-57-42
		c-27-9-54-6-75,6c-42,18-60,57-54,96h-99v132h57l3,354h489l-3-354h63V174z M715,141c6-9,15-15,24-18s21,0,30,3c9,6,18,12,21,21
		c0,9,0,18-3,27h-87L715,141z M517,126c6-3,9-3,15-3c3,0,9,0,12,3c9,3,18,9,24,18l18,30h-87C490,156,499,135,517,126z M826,591H457
		V303h369V591z M898,264H388v-51h510V264z"/>
</g>
<path fill="#007BFE" d="M748,495l-33-18l30-6c6,0,9-6,6-12c0-6-6-9-12-6l-48,12l-33-18l33-18l48,12h3c3,0,9-3,9-6c0-6-3-9-6-12
	l-30-6l33-18c6-3,6-9,3-12s-9-6-12-3l-33,18l9-27c0-6-3-9-6-12c-6,0-12,3-12,6l-12,45l-33,18v-36l36-33c3-3,3-9,0-12s-9-3-15,0
	l-21,21v-36c0-6-3-9-9-9s-9,3-9,9v36l-24-24c-3-3-9-3-15,0c-3,3-3,9,0,12l36,33v36l-33-18l-12-45c0-6-6-9-12-6c-6,0-9,6-6,12l9,27
	l-33-18c-6-3-12,0-12,3c-3,3,0,9,3,12l33,18l-30,6c-6,0-9,6-6,12c0,3,6,6,9,6h3l48-12l33,18l-33,18l-48-12c-6,0-12,3-12,6
	c0,6,3,9,6,12l30,6l-33,18c-6,3-6,9-3,12s6,6,9,6s3,0,6,0l30-18l-9,30c0,6,3,9,6,12h3c3,0,9-3,9-6l12-45l33-18v36l-36,33
	c-3,3-3,9,0,12s9,3,15,0l21-21v36c0,6,3,9,9,9s9-3,9-9v-36l21,21c3,3,3,3,6,3s6,0,6-3c3-3,3-9,0-12l-36-33v-39l33,18l12,45
	c0,3,6,6,9,6h3c6,0,9-6,6-12v-27l33,18c3,0,3,0,6,0s6-3,9-6C757,504,754,498,748,495z"/>
</svg>
